<svg width="20" height="21" viewBox="0 0 20 21" fill="none" xmlns="http://www.w3.org/2000/svg">
<mask id="mask0_960_749" style="mask-type:alpha" maskUnits="userSpaceOnUse" x="0" y="0" width="20" height="21">
<rect y="0.5" width="20" height="20" fill="#D9D9D9"/>
</mask>
<g mask="url(#mask0_960_749)">
<path d="M1.66663 18V16.3333H4.99996V13H3.33329V11.3333H5.08329C5.24996 10.2917 5.71176 9.39236 6.46871 8.63542C7.22565 7.87847 8.12496 7.41667 9.16663 7.25V3H15V6.33333H10.8333V7.25C11.875 7.41667 12.7743 7.87847 13.5312 8.63542C14.2882 9.39236 14.75 10.2917 14.9166 11.3333H16.6666V13H15V16.3333H18.3333V18H1.66663ZM6.66663 16.3333H9.16663V13H6.66663V16.3333ZM10.8333 16.3333H13.3333V13H10.8333V16.3333Z" fill="#1C1B1F"/>
</g>
</svg>
