<svg width="20" height="20" viewBox="0 0 20 20" fill="none" xmlns="http://www.w3.org/2000/svg">
<mask id="mask0_960_746" style="mask-type:alpha" maskUnits="userSpaceOnUse" x="0" y="0" width="20" height="20">
<rect width="20" height="20" fill="#D9D9D9"/>
</mask>
<g mask="url(#mask0_960_746)">
<path d="M3.33337 11.8543H4.27087L4.75004 10.4793H6.91671L7.41671 11.8543H8.33337L6.31254 6.47933H5.35421L3.33337 11.8543ZM5.02087 9.7085L5.81254 7.47933H5.85421L6.64587 9.7085H5.02087ZM11.6667 8.25016V6.8335C12.125 6.63905 12.5938 6.49322 13.073 6.396C13.5521 6.29877 14.0556 6.25016 14.5834 6.25016C14.9445 6.25016 15.2987 6.27794 15.6459 6.3335C15.9931 6.38905 16.3334 6.4585 16.6667 6.54183V7.87516C16.3334 7.75016 15.9966 7.65641 15.6563 7.59391C15.316 7.53141 14.9584 7.50016 14.5834 7.50016C14.0556 7.50016 13.5487 7.56614 13.0625 7.69808C12.5764 7.83002 12.1112 8.01405 11.6667 8.25016ZM11.6667 12.8335V11.4168C12.125 11.2224 12.5938 11.0766 13.073 10.9793C13.5521 10.8821 14.0556 10.8335 14.5834 10.8335C14.9445 10.8335 15.2987 10.8613 15.6459 10.9168C15.9931 10.9724 16.3334 11.0418 16.6667 11.1252V12.4585C16.3334 12.3335 15.9966 12.2397 15.6563 12.1772C15.316 12.1147 14.9584 12.0835 14.5834 12.0835C14.0556 12.0835 13.5487 12.146 13.0625 12.271C12.5764 12.396 12.1112 12.5835 11.6667 12.8335ZM11.6667 10.5418V9.12516C12.125 8.93072 12.5938 8.78489 13.073 8.68766C13.5521 8.59044 14.0556 8.54183 14.5834 8.54183C14.9445 8.54183 15.2987 8.56961 15.6459 8.62516C15.9931 8.68072 16.3334 8.75016 16.6667 8.8335V10.1668C16.3334 10.0418 15.9966 9.94808 15.6563 9.88558C15.316 9.82308 14.9584 9.79183 14.5834 9.79183C14.0556 9.79183 13.5487 9.8578 13.0625 9.98975C12.5764 10.1217 12.1112 10.3057 11.6667 10.5418ZM10.8334 14.2085C11.4445 13.9168 12.0591 13.6981 12.6771 13.5522C13.2952 13.4064 13.9306 13.3335 14.5834 13.3335C15.0834 13.3335 15.573 13.3752 16.0521 13.4585C16.5313 13.5418 17.0139 13.6668 17.5 13.8335V5.5835C17.0417 5.38905 16.566 5.24322 16.073 5.146C15.5799 5.04877 15.0834 5.00016 14.5834 5.00016C13.9306 5.00016 13.2848 5.0835 12.6459 5.25016C12.007 5.41683 11.4028 5.66683 10.8334 6.00016V14.2085ZM10 16.6668C9.33337 16.1391 8.61115 15.7293 7.83337 15.4377C7.0556 15.146 6.25004 15.0002 5.41671 15.0002C4.83337 15.0002 4.26046 15.0766 3.69796 15.2293C3.13546 15.3821 2.59726 15.5974 2.08337 15.8752C1.79171 16.0279 1.51046 16.021 1.23962 15.8543C0.968791 15.6877 0.833374 15.4446 0.833374 15.1252V5.0835C0.833374 4.93072 0.871568 4.78489 0.947957 4.646C1.02435 4.50711 1.13893 4.40294 1.29171 4.3335C1.9306 4.00016 2.59726 3.75016 3.29171 3.5835C3.98615 3.41683 4.69449 3.3335 5.41671 3.3335C6.22226 3.3335 7.01046 3.43766 7.78129 3.646C8.55212 3.85433 9.29171 4.16683 10 4.5835C10.7084 4.16683 11.448 3.85433 12.2188 3.646C12.9896 3.43766 13.7778 3.3335 14.5834 3.3335C15.3056 3.3335 16.0139 3.41683 16.7084 3.5835C17.4028 3.75016 18.0695 4.00016 18.7084 4.3335C18.8612 4.40294 18.9757 4.50711 19.0521 4.646C19.1285 4.78489 19.1667 4.93072 19.1667 5.0835V15.1252C19.1667 15.4446 19.0313 15.6877 18.7605 15.8543C18.4896 16.021 18.2084 16.0279 17.9167 15.8752C17.4028 15.5974 16.8646 15.3821 16.3021 15.2293C15.7396 15.0766 15.1667 15.0002 14.5834 15.0002C13.75 15.0002 12.9445 15.146 12.1667 15.4377C11.3889 15.7293 10.6667 16.1391 10 16.6668Z" fill="#1C1B1F"/>
</g>
</svg>
