<svg width="20" height="21" viewBox="0 0 20 21" fill="none" xmlns="http://www.w3.org/2000/svg">
<mask id="mask0_960_752" style="mask-type:alpha" maskUnits="userSpaceOnUse" x="0" y="0" width="20" height="21">
<rect y="0.5" width="20" height="20" fill="#D9D9D9"/>
</mask>
<g mask="url(#mask0_960_752)">
<path d="M3.33329 18.0001C2.87496 18.0001 2.4826 17.8369 2.15621 17.5105C1.82982 17.1841 1.66663 16.7917 1.66663 16.3334V7.16675C1.66663 6.70842 1.82982 6.31605 2.15621 5.98967C2.4826 5.66328 2.87496 5.50008 3.33329 5.50008H6.66663V3.83341C6.66663 3.37508 6.82982 2.98272 7.15621 2.65633C7.4826 2.32994 7.87496 2.16675 8.33329 2.16675H11.6666C12.125 2.16675 12.5173 2.32994 12.8437 2.65633C13.1701 2.98272 13.3333 3.37508 13.3333 3.83341V5.50008H16.6666C17.125 5.50008 17.5173 5.66328 17.8437 5.98967C18.1701 6.31605 18.3333 6.70842 18.3333 7.16675V16.3334C18.3333 16.7917 18.1701 17.1841 17.8437 17.5105C17.5173 17.8369 17.125 18.0001 16.6666 18.0001H3.33329ZM8.33329 5.50008H11.6666V3.83341H8.33329V5.50008Z" fill="#1C1B1F"/>
</g>
</svg>
