<svg width="482" height="293" viewBox="0 0 482 293" fill="none" xmlns="http://www.w3.org/2000/svg">
<g clip-path="url(#clip0_1437_324)">
<path d="M479.365 0.204102H2.56755C1.26535 0.204102 0.209717 1.23344 0.209717 2.5032V290.496C0.209717 291.766 1.26535 292.795 2.56755 292.795H479.365C480.667 292.795 481.723 291.766 481.723 290.496V2.5032C481.723 1.23344 480.667 0.204102 479.365 0.204102Z" stroke="url(#paint0_linear_1437_324)" stroke-miterlimit="10"/>
<path d="M240.964 185.356C262.972 185.356 280.813 167.959 280.813 146.5C280.813 125.041 262.972 107.645 240.964 107.645C218.957 107.645 201.116 125.041 201.116 146.5C201.116 167.959 218.957 185.356 240.964 185.356Z" stroke="url(#paint1_linear_1437_324)" stroke-miterlimit="10"/>
<path d="M283.007 120.354C287.953 127.906 290.823 136.878 290.823 146.5C290.823 156.121 287.953 165.097 283.003 172.645" stroke="url(#paint2_linear_1437_324)" stroke-miterlimit="10"/>
<path d="M214.151 105.509C221.896 100.686 231.097 97.8877 240.964 97.8877C250.832 97.8877 260.037 100.686 267.777 105.513" stroke="url(#paint3_linear_1437_324)" stroke-miterlimit="10"/>
<path d="M198.93 172.645C193.98 165.097 191.11 156.121 191.11 146.5C191.11 136.878 193.98 127.906 198.926 120.354" stroke="url(#paint4_linear_1437_324)" stroke-miterlimit="10"/>
<path d="M214.151 187.495C221.896 192.319 231.097 195.117 240.964 195.117C250.832 195.117 260.037 192.318 267.777 187.491" stroke="url(#paint5_linear_1437_324)" stroke-miterlimit="10"/>
<path d="M0.209717 146.5H191.11" stroke="url(#paint6_linear_1437_324)" stroke-miterlimit="10"/>
<path d="M240.964 292.795V195.112" stroke="url(#paint7_linear_1437_324)" stroke-miterlimit="10"/>
<path d="M240.964 97.8831V0.204102" stroke="url(#paint8_linear_1437_324)" stroke-miterlimit="10"/>
<path d="M25.3823 146.5L43.2381 133.499H117.929" stroke="url(#paint9_linear_1437_324)" stroke-miterlimit="10"/>
<path d="M76.7974 146.5L89.7906 160.258H147.495" stroke="url(#paint10_linear_1437_324)" stroke-miterlimit="10"/>
<path d="M76.7974 133.499L95.1565 120.134H160.991" stroke="url(#paint11_linear_1437_324)" stroke-miterlimit="10"/>
<path d="M130.784 120.134V75.3223H0.209717" stroke="url(#paint12_linear_1437_324)" stroke-miterlimit="10"/>
<path d="M117.929 160.258V195.112H0.209717" stroke="url(#paint13_linear_1437_324)" stroke-miterlimit="10"/>
<path d="M59.0715 195.112L72.3836 208.097H147.494" stroke="url(#paint14_linear_1437_324)" stroke-miterlimit="10"/>
<path d="M117.929 208.097L129.865 219.735H240.964" stroke="url(#paint15_linear_1437_324)" stroke-miterlimit="10"/>
<path d="M0.209717 239.52L14.0798 253.044H165.493" stroke="url(#paint16_linear_1437_324)" stroke-miterlimit="10"/>
<path d="M76.7974 75.3224L95.5467 57.04H172.562" stroke="url(#paint17_linear_1437_324)" stroke-miterlimit="10"/>
<path d="M29.8799 75.3224L79.1803 27.25H211.122" stroke="url(#paint18_linear_1437_324)" stroke-miterlimit="10"/>
<path d="M0.209717 44.6152H61.3748" stroke="url(#paint19_linear_1437_324)" stroke-miterlimit="10"/>
<path d="M130.784 97.8834H175.776L192.805 81.2783H240.964" stroke="url(#paint20_linear_1437_324)" stroke-miterlimit="10"/>
<path d="M201.12 219.735V266.646H106.816L92.8657 253.044" stroke="url(#paint21_linear_1437_324)" stroke-miterlimit="10"/>
<path d="M137.853 27.2492V0.204102" stroke="url(#paint22_linear_1437_324)" stroke-miterlimit="10"/>
<path d="M22.1687 44.6158L53.7519 13.8193H137.853" stroke="url(#paint23_linear_1437_324)" stroke-miterlimit="10"/>
<path d="M51.7339 253.044V292.795" stroke="url(#paint24_linear_1437_324)" stroke-miterlimit="10"/>
<path d="M51.7339 279.626H208.769L223.977 263.242V219.735" stroke="url(#paint25_linear_1437_324)" stroke-miterlimit="10"/>
<path d="M174.559 58.8521C175.585 58.8521 176.418 58.0407 176.418 57.0398C176.418 56.0389 175.585 55.2275 174.559 55.2275C173.533 55.2275 172.7 56.0389 172.7 57.0398C172.7 58.0407 173.533 58.8521 174.559 58.8521Z" stroke="url(#paint26_linear_1437_324)" stroke-miterlimit="10"/>
<path d="M162.85 121.946C163.876 121.946 164.708 121.134 164.708 120.134C164.708 119.133 163.876 118.321 162.85 118.321C161.823 118.321 160.991 119.133 160.991 120.134C160.991 121.134 161.823 121.946 162.85 121.946Z" stroke="url(#paint27_linear_1437_324)" stroke-miterlimit="10"/>
<path d="M199.942 120.617C200.968 120.617 201.8 119.805 201.8 118.804C201.8 117.804 200.968 116.992 199.942 116.992C198.915 116.992 198.083 117.804 198.083 118.804C198.083 119.805 198.915 120.617 199.942 120.617Z" stroke="url(#paint28_linear_1437_324)" stroke-miterlimit="10"/>
<path d="M212.482 108.294C213.508 108.294 214.34 107.483 214.34 106.482C214.34 105.481 213.508 104.67 212.482 104.67C211.455 104.67 210.623 105.481 210.623 106.482C210.623 107.483 211.455 108.294 212.482 108.294Z" stroke="url(#paint29_linear_1437_324)" stroke-miterlimit="10"/>
<path d="M269.212 108.491C270.239 108.491 271.071 107.679 271.071 106.678C271.071 105.678 270.239 104.866 269.212 104.866C268.186 104.866 267.354 105.678 267.354 106.678C267.354 107.679 268.186 108.491 269.212 108.491Z" stroke="url(#paint30_linear_1437_324)" stroke-miterlimit="10"/>
<path d="M281.849 120.719C282.875 120.719 283.707 119.908 283.707 118.907C283.707 117.906 282.875 117.095 281.849 117.095C280.822 117.095 279.99 117.906 279.99 118.907C279.99 119.908 280.822 120.719 281.849 120.719Z" stroke="url(#paint31_linear_1437_324)" stroke-miterlimit="10"/>
<path d="M281.849 175.897C282.875 175.897 283.707 175.086 283.707 174.085C283.707 173.084 282.875 172.272 281.849 172.272C280.822 172.272 279.99 173.084 279.99 174.085C279.99 175.086 280.822 175.897 281.849 175.897Z" stroke="url(#paint32_linear_1437_324)" stroke-miterlimit="10"/>
<path d="M269.309 188.219C270.335 188.219 271.167 187.408 271.167 186.407C271.167 185.406 270.335 184.595 269.309 184.595C268.282 184.595 267.45 185.406 267.45 186.407C267.45 187.408 268.282 188.219 269.309 188.219Z" stroke="url(#paint33_linear_1437_324)" stroke-miterlimit="10"/>
<path d="M212.574 188.023C213.6 188.023 214.432 187.212 214.432 186.211C214.432 185.21 213.6 184.398 212.574 184.398C211.547 184.398 210.715 185.21 210.715 186.211C210.715 187.212 211.547 188.023 212.574 188.023Z" stroke="url(#paint34_linear_1437_324)" stroke-miterlimit="10"/>
<path d="M199.942 175.795C200.968 175.795 201.8 174.984 201.8 173.983C201.8 172.982 200.968 172.171 199.942 172.171C198.915 172.171 198.083 172.982 198.083 173.983C198.083 174.984 198.915 175.795 199.942 175.795Z" stroke="url(#paint35_linear_1437_324)" stroke-miterlimit="10"/>
<path d="M119.788 135.311C120.814 135.311 121.646 134.5 121.646 133.499C121.646 132.498 120.814 131.687 119.788 131.687C118.761 131.687 117.929 132.498 117.929 133.499C117.929 134.5 118.761 135.311 119.788 135.311Z" stroke="url(#paint36_linear_1437_324)" stroke-miterlimit="10"/>
<path d="M149.353 162.07C150.379 162.07 151.212 161.258 151.212 160.258C151.212 159.257 150.379 158.445 149.353 158.445C148.326 158.445 147.494 159.257 147.494 160.258C147.494 161.258 148.326 162.07 149.353 162.07Z" stroke="url(#paint37_linear_1437_324)" stroke-miterlimit="10"/>
<path d="M149.353 209.91C150.379 209.91 151.212 209.098 151.212 208.097C151.212 207.097 150.379 206.285 149.353 206.285C148.326 206.285 147.494 207.097 147.494 208.097C147.494 209.098 148.326 209.91 149.353 209.91Z" stroke="url(#paint38_linear_1437_324)" stroke-miterlimit="10"/>
<path d="M167.561 254.856C168.588 254.856 169.42 254.045 169.42 253.044C169.42 252.043 168.588 251.231 167.561 251.231C166.535 251.231 165.703 252.043 165.703 253.044C165.703 254.045 166.535 254.856 167.561 254.856Z" stroke="url(#paint39_linear_1437_324)" stroke-miterlimit="10"/>
<path d="M212.981 29.0621C214.007 29.0621 214.839 28.2507 214.839 27.2498C214.839 26.2489 214.007 25.4375 212.981 25.4375C211.954 25.4375 211.122 26.2489 211.122 27.2498C211.122 28.2507 211.954 29.0621 212.981 29.0621Z" stroke="url(#paint40_linear_1437_324)" stroke-miterlimit="10"/>
<path d="M481.853 146.5H290.953" stroke="url(#paint41_linear_1437_324)" stroke-miterlimit="10"/>
<path d="M456.681 146.5L438.821 159.501H364.13" stroke="url(#paint42_linear_1437_324)" stroke-miterlimit="10"/>
<path d="M405.266 146.5L392.272 132.742H334.569" stroke="url(#paint43_linear_1437_324)" stroke-miterlimit="10"/>
<path d="M405.266 159.501L386.902 172.866H321.072" stroke="url(#paint44_linear_1437_324)" stroke-miterlimit="10"/>
<path d="M351.279 172.866V217.674H481.853" stroke="url(#paint45_linear_1437_324)" stroke-miterlimit="10"/>
<path d="M364.13 132.743V97.8838H481.853" stroke="url(#paint46_linear_1437_324)" stroke-miterlimit="10"/>
<path d="M422.991 97.883L409.675 84.8984H334.569" stroke="url(#paint47_linear_1437_324)" stroke-miterlimit="10"/>
<path d="M364.129 84.8992L352.198 73.2646H241.094" stroke="url(#paint48_linear_1437_324)" stroke-miterlimit="10"/>
<path d="M481.853 53.4806L467.979 39.9561H316.57" stroke="url(#paint49_linear_1437_324)" stroke-miterlimit="10"/>
<path d="M405.266 217.674L386.512 235.96H309.501" stroke="url(#paint50_linear_1437_324)" stroke-miterlimit="10"/>
<path d="M452.183 217.674L402.883 265.746H270.941" stroke="url(#paint51_linear_1437_324)" stroke-miterlimit="10"/>
<path d="M481.853 248.385H420.688" stroke="url(#paint52_linear_1437_324)" stroke-miterlimit="10"/>
<path d="M351.279 195.112H306.287L289.258 211.721H241.094" stroke="url(#paint53_linear_1437_324)" stroke-miterlimit="10"/>
<path d="M280.943 73.2643V26.3496H375.243L389.197 39.956" stroke="url(#paint54_linear_1437_324)" stroke-miterlimit="10"/>
<path d="M344.205 265.746V292.795" stroke="url(#paint55_linear_1437_324)" stroke-miterlimit="10"/>
<path d="M459.894 248.385L428.311 279.181H344.205" stroke="url(#paint56_linear_1437_324)" stroke-miterlimit="10"/>
<path d="M430.329 39.9556V0.204102" stroke="url(#paint57_linear_1437_324)" stroke-miterlimit="10"/>
<path d="M430.329 13.373H273.294L258.086 29.7572V73.2641" stroke="url(#paint58_linear_1437_324)" stroke-miterlimit="10"/>
<path d="M307.504 237.773C308.53 237.773 309.362 236.962 309.362 235.961C309.362 234.96 308.53 234.148 307.504 234.148C306.477 234.148 305.645 234.96 305.645 235.961C305.645 236.962 306.477 237.773 307.504 237.773Z" stroke="url(#paint59_linear_1437_324)" stroke-miterlimit="10"/>
<path d="M319.213 174.678C320.24 174.678 321.072 173.867 321.072 172.866C321.072 171.865 320.24 171.054 319.213 171.054C318.187 171.054 317.355 171.865 317.355 172.866C317.355 173.867 318.187 174.678 319.213 174.678Z" stroke="url(#paint60_linear_1437_324)" stroke-miterlimit="10"/>
<path d="M362.275 161.313C363.302 161.313 364.134 160.502 364.134 159.501C364.134 158.5 363.302 157.688 362.275 157.688C361.249 157.688 360.417 158.5 360.417 159.501C360.417 160.502 361.249 161.313 362.275 161.313Z" stroke="url(#paint61_linear_1437_324)" stroke-miterlimit="10"/>
<path d="M332.71 134.554C333.736 134.554 334.568 133.743 334.568 132.742C334.568 131.741 333.736 130.93 332.71 130.93C331.683 130.93 330.851 131.741 330.851 132.742C330.851 133.743 331.683 134.554 332.71 134.554Z" stroke="url(#paint62_linear_1437_324)" stroke-miterlimit="10"/>
<path d="M332.71 86.7115C333.736 86.7115 334.568 85.9001 334.568 84.8992C334.568 83.8983 333.736 83.0869 332.71 83.0869C331.683 83.0869 330.851 83.8983 330.851 84.8992C330.851 85.9001 331.683 86.7115 332.71 86.7115Z" stroke="url(#paint63_linear_1437_324)" stroke-miterlimit="10"/>
<path d="M314.502 41.7681C315.528 41.7681 316.36 40.9567 316.36 39.9558C316.36 38.9549 315.528 38.1436 314.502 38.1436C313.475 38.1436 312.643 38.9549 312.643 39.9558C312.643 40.9567 313.475 41.7681 314.502 41.7681Z" stroke="url(#paint64_linear_1437_324)" stroke-miterlimit="10"/>
<path d="M269.082 267.558C270.109 267.558 270.941 266.747 270.941 265.746C270.941 264.745 270.109 263.934 269.082 263.934C268.056 263.934 267.224 264.745 267.224 265.746C267.224 266.747 268.056 267.558 269.082 267.558Z" stroke="url(#paint65_linear_1437_324)" stroke-miterlimit="10"/>
</g>
<defs>
<linearGradient id="paint0_linear_1437_324" x1="481.723" y1="23.0971" x2="143.717" y2="398.956" gradientUnits="userSpaceOnUse">
<stop stop-color="#FFF2AF"/>
<stop offset="0.5" stop-color="#00FF7F"/>
<stop offset="1" stop-color="#FF7D9C"/>
</linearGradient>
<linearGradient id="paint1_linear_1437_324" x1="280.813" y1="113.725" x2="196.283" y2="172.3" gradientUnits="userSpaceOnUse">
<stop stop-color="#FFF2AF"/>
<stop offset="0.5" stop-color="#00FF7F"/>
<stop offset="1" stop-color="#FF7D9C"/>
</linearGradient>
<linearGradient id="paint2_linear_1437_324" x1="290.823" y1="124.446" x2="278.669" y2="125.674" gradientUnits="userSpaceOnUse">
<stop stop-color="#FFF2AF"/>
<stop offset="0.5" stop-color="#00FF7F"/>
<stop offset="1" stop-color="#FF7D9C"/>
</linearGradient>
<linearGradient id="paint3_linear_1437_324" x1="267.777" y1="98.4843" x2="264.207" y2="115.45" gradientUnits="userSpaceOnUse">
<stop stop-color="#FFF2AF"/>
<stop offset="0.5" stop-color="#00FF7F"/>
<stop offset="1" stop-color="#FF7D9C"/>
</linearGradient>
<linearGradient id="paint4_linear_1437_324" x1="198.93" y1="124.446" x2="186.777" y2="125.674" gradientUnits="userSpaceOnUse">
<stop stop-color="#FFF2AF"/>
<stop offset="0.5" stop-color="#00FF7F"/>
<stop offset="1" stop-color="#FF7D9C"/>
</linearGradient>
<linearGradient id="paint5_linear_1437_324" x1="267.777" y1="188.088" x2="264.207" y2="205.054" gradientUnits="userSpaceOnUse">
<stop stop-color="#FFF2AF"/>
<stop offset="0.5" stop-color="#00FF7F"/>
<stop offset="1" stop-color="#FF7D9C"/>
</linearGradient>
<linearGradient id="paint6_linear_1437_324" x1="191.11" y1="146.578" x2="191.092" y2="148.902" gradientUnits="userSpaceOnUse">
<stop stop-color="#FFF2AF"/>
<stop offset="0.5" stop-color="#00FF7F"/>
<stop offset="1" stop-color="#FF7D9C"/>
</linearGradient>
<linearGradient id="paint7_linear_1437_324" x1="241.964" y1="202.755" x2="240.394" y2="202.766" gradientUnits="userSpaceOnUse">
<stop stop-color="#FFF2AF"/>
<stop offset="0.5" stop-color="#00FF7F"/>
<stop offset="1" stop-color="#FF7D9C"/>
</linearGradient>
<linearGradient id="paint8_linear_1437_324" x1="241.964" y1="7.84672" x2="240.394" y2="7.85758" gradientUnits="userSpaceOnUse">
<stop stop-color="#FFF2AF"/>
<stop offset="0.5" stop-color="#00FF7F"/>
<stop offset="1" stop-color="#FF7D9C"/>
</linearGradient>
<linearGradient id="paint9_linear_1437_324" x1="117.929" y1="134.516" x2="111.909" y2="163.472" gradientUnits="userSpaceOnUse">
<stop stop-color="#FFF2AF"/>
<stop offset="0.5" stop-color="#00FF7F"/>
<stop offset="1" stop-color="#FF7D9C"/>
</linearGradient>
<linearGradient id="paint10_linear_1437_324" x1="147.494" y1="147.576" x2="138.993" y2="177.094" gradientUnits="userSpaceOnUse">
<stop stop-color="#FFF2AF"/>
<stop offset="0.5" stop-color="#00FF7F"/>
<stop offset="1" stop-color="#FF7D9C"/>
</linearGradient>
<linearGradient id="paint11_linear_1437_324" x1="160.991" y1="121.179" x2="154.077" y2="150.608" gradientUnits="userSpaceOnUse">
<stop stop-color="#FFF2AF"/>
<stop offset="0.5" stop-color="#00FF7F"/>
<stop offset="1" stop-color="#FF7D9C"/>
</linearGradient>
<linearGradient id="paint12_linear_1437_324" x1="130.784" y1="78.8285" x2="88.7458" y2="161.596" gradientUnits="userSpaceOnUse">
<stop stop-color="#FFF2AF"/>
<stop offset="0.5" stop-color="#00FF7F"/>
<stop offset="1" stop-color="#FF7D9C"/>
</linearGradient>
<linearGradient id="paint13_linear_1437_324" x1="117.929" y1="162.985" x2="88.1593" y2="230.924" gradientUnits="userSpaceOnUse">
<stop stop-color="#FFF2AF"/>
<stop offset="0.5" stop-color="#00FF7F"/>
<stop offset="1" stop-color="#FF7D9C"/>
</linearGradient>
<linearGradient id="paint14_linear_1437_324" x1="147.494" y1="196.128" x2="141.233" y2="224.937" gradientUnits="userSpaceOnUse">
<stop stop-color="#FFF2AF"/>
<stop offset="0.5" stop-color="#00FF7F"/>
<stop offset="1" stop-color="#FF7D9C"/>
</linearGradient>
<linearGradient id="paint15_linear_1437_324" x1="240.964" y1="209.007" x2="237.251" y2="235.53" gradientUnits="userSpaceOnUse">
<stop stop-color="#FFF2AF"/>
<stop offset="0.5" stop-color="#00FF7F"/>
<stop offset="1" stop-color="#FF7D9C"/>
</linearGradient>
<linearGradient id="paint16_linear_1437_324" x1="165.493" y1="240.578" x2="161.742" y2="271.547" gradientUnits="userSpaceOnUse">
<stop stop-color="#FFF2AF"/>
<stop offset="0.5" stop-color="#00FF7F"/>
<stop offset="1" stop-color="#FF7D9C"/>
</linearGradient>
<linearGradient id="paint17_linear_1437_324" x1="172.562" y1="58.4705" x2="161.448" y2="97.8086" gradientUnits="userSpaceOnUse">
<stop stop-color="#FFF2AF"/>
<stop offset="0.5" stop-color="#00FF7F"/>
<stop offset="1" stop-color="#FF7D9C"/>
</linearGradient>
<linearGradient id="paint18_linear_1437_324" x1="211.122" y1="31.0113" x2="173.132" y2="127.793" gradientUnits="userSpaceOnUse">
<stop stop-color="#FFF2AF"/>
<stop offset="0.5" stop-color="#00FF7F"/>
<stop offset="1" stop-color="#FF7D9C"/>
</linearGradient>
<linearGradient id="paint19_linear_1437_324" x1="61.3748" y1="44.6935" x2="61.3187" y2="47.0156" gradientUnits="userSpaceOnUse">
<stop stop-color="#FFF2AF"/>
<stop offset="0.5" stop-color="#00FF7F"/>
<stop offset="1" stop-color="#FF7D9C"/>
</linearGradient>
<linearGradient id="paint20_linear_1437_324" x1="240.964" y1="82.5775" x2="232.767" y2="119.33" gradientUnits="userSpaceOnUse">
<stop stop-color="#FFF2AF"/>
<stop offset="0.5" stop-color="#00FF7F"/>
<stop offset="1" stop-color="#FF7D9C"/>
</linearGradient>
<linearGradient id="paint21_linear_1437_324" x1="201.12" y1="223.406" x2="151.591" y2="300.637" gradientUnits="userSpaceOnUse">
<stop stop-color="#FFF2AF"/>
<stop offset="0.5" stop-color="#00FF7F"/>
<stop offset="1" stop-color="#FF7D9C"/>
</linearGradient>
<linearGradient id="paint22_linear_1437_324" x1="138.853" y1="2.32017" x2="137.284" y2="2.35937" gradientUnits="userSpaceOnUse">
<stop stop-color="#FFF2AF"/>
<stop offset="0.5" stop-color="#00FF7F"/>
<stop offset="1" stop-color="#FF7D9C"/>
</linearGradient>
<linearGradient id="paint23_linear_1437_324" x1="137.853" y1="16.2289" x2="113.45" y2="78.1692" gradientUnits="userSpaceOnUse">
<stop stop-color="#FFF2AF"/>
<stop offset="0.5" stop-color="#00FF7F"/>
<stop offset="1" stop-color="#FF7D9C"/>
</linearGradient>
<linearGradient id="paint24_linear_1437_324" x1="52.7339" y1="256.154" x2="51.1644" y2="256.181" gradientUnits="userSpaceOnUse">
<stop stop-color="#FFF2AF"/>
<stop offset="0.5" stop-color="#00FF7F"/>
<stop offset="1" stop-color="#FF7D9C"/>
</linearGradient>
<linearGradient id="paint25_linear_1437_324" x1="223.977" y1="224.421" x2="167.361" y2="334.442" gradientUnits="userSpaceOnUse">
<stop stop-color="#FFF2AF"/>
<stop offset="0.5" stop-color="#00FF7F"/>
<stop offset="1" stop-color="#FF7D9C"/>
</linearGradient>
<linearGradient id="paint26_linear_1437_324" x1="176.418" y1="55.5111" x2="172.475" y2="58.2432" gradientUnits="userSpaceOnUse">
<stop stop-color="#FFF2AF"/>
<stop offset="0.5" stop-color="#00FF7F"/>
<stop offset="1" stop-color="#FF7D9C"/>
</linearGradient>
<linearGradient id="paint27_linear_1437_324" x1="164.708" y1="118.605" x2="160.766" y2="121.337" gradientUnits="userSpaceOnUse">
<stop stop-color="#FFF2AF"/>
<stop offset="0.5" stop-color="#00FF7F"/>
<stop offset="1" stop-color="#FF7D9C"/>
</linearGradient>
<linearGradient id="paint28_linear_1437_324" x1="201.8" y1="117.276" x2="197.858" y2="120.008" gradientUnits="userSpaceOnUse">
<stop stop-color="#FFF2AF"/>
<stop offset="0.5" stop-color="#00FF7F"/>
<stop offset="1" stop-color="#FF7D9C"/>
</linearGradient>
<linearGradient id="paint29_linear_1437_324" x1="214.34" y1="104.954" x2="210.398" y2="107.686" gradientUnits="userSpaceOnUse">
<stop stop-color="#FFF2AF"/>
<stop offset="0.5" stop-color="#00FF7F"/>
<stop offset="1" stop-color="#FF7D9C"/>
</linearGradient>
<linearGradient id="paint30_linear_1437_324" x1="271.071" y1="105.15" x2="267.128" y2="107.882" gradientUnits="userSpaceOnUse">
<stop stop-color="#FFF2AF"/>
<stop offset="0.5" stop-color="#00FF7F"/>
<stop offset="1" stop-color="#FF7D9C"/>
</linearGradient>
<linearGradient id="paint31_linear_1437_324" x1="283.707" y1="117.378" x2="279.765" y2="120.11" gradientUnits="userSpaceOnUse">
<stop stop-color="#FFF2AF"/>
<stop offset="0.5" stop-color="#00FF7F"/>
<stop offset="1" stop-color="#FF7D9C"/>
</linearGradient>
<linearGradient id="paint32_linear_1437_324" x1="283.707" y1="172.556" x2="279.765" y2="175.288" gradientUnits="userSpaceOnUse">
<stop stop-color="#FFF2AF"/>
<stop offset="0.5" stop-color="#00FF7F"/>
<stop offset="1" stop-color="#FF7D9C"/>
</linearGradient>
<linearGradient id="paint33_linear_1437_324" x1="271.167" y1="184.878" x2="267.225" y2="187.61" gradientUnits="userSpaceOnUse">
<stop stop-color="#FFF2AF"/>
<stop offset="0.5" stop-color="#00FF7F"/>
<stop offset="1" stop-color="#FF7D9C"/>
</linearGradient>
<linearGradient id="paint34_linear_1437_324" x1="214.432" y1="184.682" x2="210.49" y2="187.414" gradientUnits="userSpaceOnUse">
<stop stop-color="#FFF2AF"/>
<stop offset="0.5" stop-color="#00FF7F"/>
<stop offset="1" stop-color="#FF7D9C"/>
</linearGradient>
<linearGradient id="paint35_linear_1437_324" x1="201.8" y1="172.454" x2="197.858" y2="175.187" gradientUnits="userSpaceOnUse">
<stop stop-color="#FFF2AF"/>
<stop offset="0.5" stop-color="#00FF7F"/>
<stop offset="1" stop-color="#FF7D9C"/>
</linearGradient>
<linearGradient id="paint36_linear_1437_324" x1="121.646" y1="131.97" x2="117.704" y2="134.702" gradientUnits="userSpaceOnUse">
<stop stop-color="#FFF2AF"/>
<stop offset="0.5" stop-color="#00FF7F"/>
<stop offset="1" stop-color="#FF7D9C"/>
</linearGradient>
<linearGradient id="paint37_linear_1437_324" x1="151.212" y1="158.729" x2="147.269" y2="161.461" gradientUnits="userSpaceOnUse">
<stop stop-color="#FFF2AF"/>
<stop offset="0.5" stop-color="#00FF7F"/>
<stop offset="1" stop-color="#FF7D9C"/>
</linearGradient>
<linearGradient id="paint38_linear_1437_324" x1="151.212" y1="206.569" x2="147.269" y2="209.301" gradientUnits="userSpaceOnUse">
<stop stop-color="#FFF2AF"/>
<stop offset="0.5" stop-color="#00FF7F"/>
<stop offset="1" stop-color="#FF7D9C"/>
</linearGradient>
<linearGradient id="paint39_linear_1437_324" x1="169.42" y1="251.515" x2="165.477" y2="254.247" gradientUnits="userSpaceOnUse">
<stop stop-color="#FFF2AF"/>
<stop offset="0.5" stop-color="#00FF7F"/>
<stop offset="1" stop-color="#FF7D9C"/>
</linearGradient>
<linearGradient id="paint40_linear_1437_324" x1="214.839" y1="25.7211" x2="210.897" y2="28.4531" gradientUnits="userSpaceOnUse">
<stop stop-color="#FFF2AF"/>
<stop offset="0.5" stop-color="#00FF7F"/>
<stop offset="1" stop-color="#FF7D9C"/>
</linearGradient>
<linearGradient id="paint41_linear_1437_324" x1="481.853" y1="146.578" x2="481.835" y2="148.902" gradientUnits="userSpaceOnUse">
<stop stop-color="#FFF2AF"/>
<stop offset="0.5" stop-color="#00FF7F"/>
<stop offset="1" stop-color="#FF7D9C"/>
</linearGradient>
<linearGradient id="paint42_linear_1437_324" x1="456.681" y1="147.517" x2="450.661" y2="176.473" gradientUnits="userSpaceOnUse">
<stop stop-color="#FFF2AF"/>
<stop offset="0.5" stop-color="#00FF7F"/>
<stop offset="1" stop-color="#FF7D9C"/>
</linearGradient>
<linearGradient id="paint43_linear_1437_324" x1="405.266" y1="133.819" x2="396.765" y2="163.336" gradientUnits="userSpaceOnUse">
<stop stop-color="#FFF2AF"/>
<stop offset="0.5" stop-color="#00FF7F"/>
<stop offset="1" stop-color="#FF7D9C"/>
</linearGradient>
<linearGradient id="paint44_linear_1437_324" x1="405.266" y1="160.547" x2="398.352" y2="189.976" gradientUnits="userSpaceOnUse">
<stop stop-color="#FFF2AF"/>
<stop offset="0.5" stop-color="#00FF7F"/>
<stop offset="1" stop-color="#FF7D9C"/>
</linearGradient>
<linearGradient id="paint45_linear_1437_324" x1="481.853" y1="176.372" x2="439.821" y2="259.135" gradientUnits="userSpaceOnUse">
<stop stop-color="#FFF2AF"/>
<stop offset="0.5" stop-color="#00FF7F"/>
<stop offset="1" stop-color="#FF7D9C"/>
</linearGradient>
<linearGradient id="paint46_linear_1437_324" x1="481.853" y1="100.611" x2="452.078" y2="168.556" gradientUnits="userSpaceOnUse">
<stop stop-color="#FFF2AF"/>
<stop offset="0.5" stop-color="#00FF7F"/>
<stop offset="1" stop-color="#FF7D9C"/>
</linearGradient>
<linearGradient id="paint47_linear_1437_324" x1="422.991" y1="85.9144" x2="416.731" y2="114.723" gradientUnits="userSpaceOnUse">
<stop stop-color="#FFF2AF"/>
<stop offset="0.5" stop-color="#00FF7F"/>
<stop offset="1" stop-color="#FF7D9C"/>
</linearGradient>
<linearGradient id="paint48_linear_1437_324" x1="364.129" y1="74.175" x2="360.419" y2="100.688" gradientUnits="userSpaceOnUse">
<stop stop-color="#FFF2AF"/>
<stop offset="0.5" stop-color="#00FF7F"/>
<stop offset="1" stop-color="#FF7D9C"/>
</linearGradient>
<linearGradient id="paint49_linear_1437_324" x1="481.853" y1="41.0142" x2="478.103" y2="71.984" gradientUnits="userSpaceOnUse">
<stop stop-color="#FFF2AF"/>
<stop offset="0.5" stop-color="#00FF7F"/>
<stop offset="1" stop-color="#FF7D9C"/>
</linearGradient>
<linearGradient id="paint50_linear_1437_324" x1="405.266" y1="219.105" x2="394.147" y2="258.45" gradientUnits="userSpaceOnUse">
<stop stop-color="#FFF2AF"/>
<stop offset="0.5" stop-color="#00FF7F"/>
<stop offset="1" stop-color="#FF7D9C"/>
</linearGradient>
<linearGradient id="paint51_linear_1437_324" x1="452.183" y1="221.435" x2="414.193" y2="318.217" gradientUnits="userSpaceOnUse">
<stop stop-color="#FFF2AF"/>
<stop offset="0.5" stop-color="#00FF7F"/>
<stop offset="1" stop-color="#FF7D9C"/>
</linearGradient>
<linearGradient id="paint52_linear_1437_324" x1="481.853" y1="248.463" x2="481.797" y2="250.785" gradientUnits="userSpaceOnUse">
<stop stop-color="#FFF2AF"/>
<stop offset="0.5" stop-color="#00FF7F"/>
<stop offset="1" stop-color="#FF7D9C"/>
</linearGradient>
<linearGradient id="paint53_linear_1437_324" x1="351.279" y1="196.412" x2="343.078" y2="233.173" gradientUnits="userSpaceOnUse">
<stop stop-color="#FFF2AF"/>
<stop offset="0.5" stop-color="#00FF7F"/>
<stop offset="1" stop-color="#FF7D9C"/>
</linearGradient>
<linearGradient id="paint54_linear_1437_324" x1="389.197" y1="30.0203" x2="339.662" y2="107.254" gradientUnits="userSpaceOnUse">
<stop stop-color="#FFF2AF"/>
<stop offset="0.5" stop-color="#00FF7F"/>
<stop offset="1" stop-color="#FF7D9C"/>
</linearGradient>
<linearGradient id="paint55_linear_1437_324" x1="345.205" y1="267.862" x2="343.636" y2="267.902" gradientUnits="userSpaceOnUse">
<stop stop-color="#FFF2AF"/>
<stop offset="0.5" stop-color="#00FF7F"/>
<stop offset="1" stop-color="#FF7D9C"/>
</linearGradient>
<linearGradient id="paint56_linear_1437_324" x1="459.894" y1="250.794" x2="435.492" y2="312.735" gradientUnits="userSpaceOnUse">
<stop stop-color="#FFF2AF"/>
<stop offset="0.5" stop-color="#00FF7F"/>
<stop offset="1" stop-color="#FF7D9C"/>
</linearGradient>
<linearGradient id="paint57_linear_1437_324" x1="431.329" y1="3.31435" x2="429.76" y2="3.34103" gradientUnits="userSpaceOnUse">
<stop stop-color="#FFF2AF"/>
<stop offset="0.5" stop-color="#00FF7F"/>
<stop offset="1" stop-color="#FF7D9C"/>
</linearGradient>
<linearGradient id="paint58_linear_1437_324" x1="430.329" y1="18.0591" x2="373.713" y2="128.079" gradientUnits="userSpaceOnUse">
<stop stop-color="#FFF2AF"/>
<stop offset="0.5" stop-color="#00FF7F"/>
<stop offset="1" stop-color="#FF7D9C"/>
</linearGradient>
<linearGradient id="paint59_linear_1437_324" x1="309.362" y1="234.432" x2="305.42" y2="237.164" gradientUnits="userSpaceOnUse">
<stop stop-color="#FFF2AF"/>
<stop offset="0.5" stop-color="#00FF7F"/>
<stop offset="1" stop-color="#FF7D9C"/>
</linearGradient>
<linearGradient id="paint60_linear_1437_324" x1="321.072" y1="171.337" x2="317.129" y2="174.069" gradientUnits="userSpaceOnUse">
<stop stop-color="#FFF2AF"/>
<stop offset="0.5" stop-color="#00FF7F"/>
<stop offset="1" stop-color="#FF7D9C"/>
</linearGradient>
<linearGradient id="paint61_linear_1437_324" x1="364.134" y1="157.972" x2="360.191" y2="160.704" gradientUnits="userSpaceOnUse">
<stop stop-color="#FFF2AF"/>
<stop offset="0.5" stop-color="#00FF7F"/>
<stop offset="1" stop-color="#FF7D9C"/>
</linearGradient>
<linearGradient id="paint62_linear_1437_324" x1="334.568" y1="131.213" x2="330.626" y2="133.945" gradientUnits="userSpaceOnUse">
<stop stop-color="#FFF2AF"/>
<stop offset="0.5" stop-color="#00FF7F"/>
<stop offset="1" stop-color="#FF7D9C"/>
</linearGradient>
<linearGradient id="paint63_linear_1437_324" x1="334.568" y1="83.3705" x2="330.626" y2="86.1026" gradientUnits="userSpaceOnUse">
<stop stop-color="#FFF2AF"/>
<stop offset="0.5" stop-color="#00FF7F"/>
<stop offset="1" stop-color="#FF7D9C"/>
</linearGradient>
<linearGradient id="paint64_linear_1437_324" x1="316.36" y1="38.4271" x2="312.418" y2="41.1592" gradientUnits="userSpaceOnUse">
<stop stop-color="#FFF2AF"/>
<stop offset="0.5" stop-color="#00FF7F"/>
<stop offset="1" stop-color="#FF7D9C"/>
</linearGradient>
<linearGradient id="paint65_linear_1437_324" x1="270.941" y1="264.217" x2="266.998" y2="266.949" gradientUnits="userSpaceOnUse">
<stop stop-color="#FFF2AF"/>
<stop offset="0.5" stop-color="#00FF7F"/>
<stop offset="1" stop-color="#FF7D9C"/>
</linearGradient>
<clipPath id="clip0_1437_324">
<rect width="482" height="293" fill="white"/>
</clipPath>
</defs>
</svg>
