<svg width="25" height="17" viewBox="0 0 25 17" fill="none" xmlns="http://www.w3.org/2000/svg">
<path d="M12.8939 0.349701C9.70738 0.349701 6.86947 2.21391 5.58769 5.06981C2.81049 5.43636 0.658447 7.82002 0.658447 10.6962C0.658447 12.0229 1.11494 13.244 1.88176 14.2109L3.82468 12.6863C3.39067 12.1399 3.13206 11.4472 3.13206 10.6962C3.13206 8.9309 4.56676 7.4962 6.33202 7.4962L7.34171 7.52319L7.6273 6.64393C8.37388 4.35921 10.4899 2.82332 12.8939 2.82332C13.8721 2.82332 14.7918 3.07742 15.5901 3.52717C16.3704 3.01896 17.2002 2.58945 18.0615 2.24314C16.665 1.06255 14.8615 0.349701 12.8939 0.349701ZM20.8634 7.53218C20.8521 7.42424 20.8387 7.3163 20.8229 7.21061C20.0808 7.84476 19.2735 8.40245 18.4168 8.87243L18.3875 9.77193L19.6198 9.81466C20.724 9.85288 21.5897 10.7501 21.5897 11.8565C21.5897 12.9629 20.6745 13.8984 19.5479 13.8984H7.82069L3.82018 15.7851C4.578 16.1606 5.43028 16.372 6.33202 16.372H19.5479C22.0372 16.372 24.0633 14.3459 24.0633 11.8565C24.0633 9.81241 22.7276 8.09212 20.8634 7.53218Z" fill="#2C2C2C"/>
<path d="M24.1442 1.58873L21.2478 2.05422C18.9541 2.42301 16.7908 3.36973 14.9626 4.80443L0.426709 16.21C0.242312 16.354 0.419963 16.6418 0.631344 16.5429L17.3417 8.66327C19.4443 7.67157 21.259 6.16267 22.6173 4.27822L24.3308 1.89905C24.432 1.75738 24.3128 1.56174 24.1397 1.59098L24.1442 1.58873Z" fill="#2C2C2C"/>
</svg>
