<svg width="20" height="20" viewBox="0 0 20 20" fill="none" xmlns="http://www.w3.org/2000/svg">
<mask id="mask0_960_740" style="mask-type:alpha" maskUnits="userSpaceOnUse" x="0" y="0" width="20" height="20">
<rect width="20" height="20" fill="#D9D9D9"/>
</mask>
<g mask="url(#mask0_960_740)">
<path d="M10 19.1666C8.73615 19.1666 7.54518 18.927 6.42712 18.4478C5.30907 17.9687 4.33685 17.3159 3.51046 16.4895C2.68407 15.6631 2.03129 14.6909 1.55212 13.5728C1.07296 12.4548 0.833374 11.2638 0.833374 9.99992C0.833374 8.72214 1.07296 7.5277 1.55212 6.41659C2.03129 5.30547 2.68407 4.33672 3.51046 3.51034C4.33685 2.68395 5.30907 2.03117 6.42712 1.552C7.54518 1.07284 8.73615 0.833252 10 0.833252C11.2778 0.833252 12.4723 1.07284 13.5834 1.552C14.6945 2.03117 15.6632 2.68395 16.4896 3.51034C17.316 4.33672 17.9688 5.30547 18.448 6.41659C18.9271 7.5277 19.1667 8.72214 19.1667 9.99992C19.1667 11.2638 18.9271 12.4548 18.448 13.5728C17.9688 14.6909 17.316 15.6631 16.4896 16.4895C15.6632 17.3159 14.6945 17.9687 13.5834 18.4478C12.4723 18.927 11.2778 19.1666 10 19.1666ZM9.47921 16.4791C9.6181 16.618 9.77782 16.6874 9.95837 16.6874C10.1389 16.6874 10.2987 16.618 10.4375 16.4791L16.4375 10.4791C16.5764 10.3402 16.6459 10.1735 16.6459 9.97909C16.6459 9.78464 16.5764 9.61797 16.4375 9.47909L10.4375 3.47909C10.2987 3.3402 10.1389 3.27075 9.95837 3.27075C9.77782 3.27075 9.6181 3.3402 9.47921 3.47909L3.47921 9.47909C3.34032 9.61797 3.27087 9.78464 3.27087 9.97909C3.27087 10.1735 3.34032 10.3402 3.47921 10.4791L9.47921 16.4791ZM6.64587 12.4791V9.14575C6.64587 8.89575 6.72226 8.69436 6.87504 8.54159C7.02782 8.38881 7.22921 8.31242 7.47921 8.31242H10.9375L10.0625 7.39575L11.2292 6.22909L14.1459 9.14575L11.2292 12.0624L10.0625 10.8958L10.9375 9.97909H8.31254V12.4791H6.64587Z" fill="#1C1B1F"/>
</g>
</svg>
