<svg width="480" height="286" viewBox="0 0 480 286" fill="none" xmlns="http://www.w3.org/2000/svg">
<path d="M477.299 1H2.70166C1.59709 1 0.70166 1.89543 0.70166 3V282.751C0.70166 283.856 1.59709 284.751 2.70166 284.751H477.299C478.403 284.751 479.299 283.856 479.299 282.751V3C479.299 1.89543 478.403 1 477.299 1Z" stroke="url(#paint0_linear_1437_458)" stroke-miterlimit="10"/>
<path d="M434.047 38.9707H45.957C44.8525 38.9707 43.957 39.8661 43.957 40.9707V244.777C43.957 245.881 44.8525 246.777 45.957 246.777H434.047C435.152 246.777 436.047 245.881 436.047 244.777V40.9707C436.047 39.8661 435.152 38.9707 434.047 38.9707Z" stroke="url(#paint1_linear_1437_458)" stroke-miterlimit="10"/>
<path d="M457.302 20.1289H22.6938C21.5893 20.1289 20.6938 21.0243 20.6938 22.1289V263.614C20.6938 264.719 21.5893 265.614 22.6938 265.614H457.302C458.406 265.614 459.302 264.719 459.302 263.614V22.1289C459.302 21.0243 458.406 20.1289 457.302 20.1289Z" stroke="url(#paint2_linear_1437_458)" stroke-miterlimit="10"/>
<path d="M282.283 81.7988H196.984C195.427 81.7988 194.165 83.063 194.165 84.6224V201.119C194.165 202.679 195.427 203.943 196.984 203.943H282.283C283.839 203.943 285.102 202.679 285.102 201.119V84.6224C285.102 83.063 283.839 81.7988 282.283 81.7988Z" fill="white" stroke="url(#paint3_linear_1437_458)" stroke-miterlimit="10"/>
<path d="M218.896 105.589C223.153 105.589 226.605 102.132 226.605 97.8668C226.605 93.6019 223.153 90.1445 218.896 90.1445C214.638 90.1445 211.186 93.6019 211.186 97.8668C211.186 102.132 214.638 105.589 218.896 105.589Z" fill="white" stroke="url(#paint4_linear_1437_458)" stroke-miterlimit="10"/>
<path d="M232.266 118.981C232.266 111.586 226.279 105.589 218.895 105.589C211.512 105.589 205.525 111.586 205.525 118.981H232.266Z" fill="white" stroke="url(#paint5_linear_1437_458)" stroke-miterlimit="10"/>
<path d="M258.357 105.589C262.615 105.589 266.067 102.132 266.067 97.8668C266.067 93.6019 262.615 90.1445 258.357 90.1445C254.099 90.1445 250.647 93.6019 250.647 97.8668C250.647 102.132 254.099 105.589 258.357 105.589Z" fill="white" stroke="url(#paint6_linear_1437_458)" stroke-miterlimit="10"/>
<path d="M271.727 118.981C271.727 111.586 265.74 105.589 258.357 105.589C250.974 105.589 244.987 111.586 244.987 118.981H271.727Z" fill="white" stroke="url(#paint7_linear_1437_458)" stroke-miterlimit="10"/>
<path d="M218.896 142.851C223.154 142.851 226.605 139.393 226.605 135.128C226.605 130.864 223.154 127.406 218.896 127.406C214.638 127.406 211.186 130.864 211.186 135.128C211.186 139.393 214.638 142.851 218.896 142.851Z" fill="white" stroke="url(#paint8_linear_1437_458)" stroke-miterlimit="10"/>
<path d="M232.266 156.242C232.266 148.847 226.279 142.851 218.896 142.851C211.513 142.851 205.526 148.847 205.526 156.242H232.266Z" fill="white" stroke="url(#paint9_linear_1437_458)" stroke-miterlimit="10"/>
<path d="M258.357 142.851C262.615 142.851 266.067 139.393 266.067 135.128C266.067 130.864 262.615 127.406 258.357 127.406C254.099 127.406 250.647 130.864 250.647 135.128C250.647 139.393 254.099 142.851 258.357 142.851Z" fill="white" stroke="url(#paint10_linear_1437_458)" stroke-miterlimit="10"/>
<path d="M271.727 156.242C271.727 148.847 265.74 142.851 258.357 142.851C250.974 142.851 244.987 148.847 244.987 156.242H271.727Z" fill="white" stroke="url(#paint11_linear_1437_458)" stroke-miterlimit="10"/>
<path d="M218.896 180.109C223.154 180.109 226.605 176.651 226.605 172.386C226.605 168.121 223.154 164.664 218.896 164.664C214.638 164.664 211.186 168.121 211.186 172.386C211.186 176.651 214.638 180.109 218.896 180.109Z" fill="white" stroke="url(#paint12_linear_1437_458)" stroke-miterlimit="10"/>
<path d="M232.266 193.5C232.266 186.105 226.279 180.108 218.896 180.108C211.513 180.108 205.526 186.105 205.526 193.5H232.266Z" fill="white" stroke="url(#paint13_linear_1437_458)" stroke-miterlimit="10"/>
<path d="M258.357 180.109C262.615 180.109 266.067 176.651 266.067 172.386C266.067 168.121 262.615 164.664 258.357 164.664C254.099 164.664 250.647 168.121 250.647 172.386C250.647 176.651 254.099 180.109 258.357 180.109Z" fill="white" stroke="url(#paint14_linear_1437_458)" stroke-miterlimit="10"/>
<path d="M271.727 193.5C271.727 186.105 265.74 180.108 258.357 180.108C250.974 180.108 244.987 186.105 244.987 193.5H271.727Z" fill="white" stroke="url(#paint15_linear_1437_458)" stroke-miterlimit="10"/>
<path d="M160.771 81.7988H75.4718C73.9149 81.7988 72.6528 83.063 72.6528 84.6224V201.119C72.6528 202.679 73.9149 203.943 75.4718 203.943H160.771C162.328 203.943 163.59 202.679 163.59 201.119V84.6224C163.59 83.063 162.328 81.7988 160.771 81.7988Z" fill="white" stroke="url(#paint16_linear_1437_458)" stroke-miterlimit="10"/>
<path d="M79.9644 93.1787H104.727" stroke="url(#paint17_linear_1437_458)" stroke-miterlimit="10"/>
<path d="M108.736 93.1787H121.417" stroke="url(#paint18_linear_1437_458)" stroke-miterlimit="10"/>
<path d="M125.663 93.1787H138.344" stroke="url(#paint19_linear_1437_458)" stroke-miterlimit="10"/>
<path d="M142.72 93.1787H155.401" stroke="url(#paint20_linear_1437_458)" stroke-miterlimit="10"/>
<path d="M79.9644 104.348H104.727" stroke="url(#paint21_linear_1437_458)" stroke-miterlimit="10"/>
<path d="M108.736 104.348H121.417" stroke="url(#paint22_linear_1437_458)" stroke-miterlimit="10"/>
<path d="M125.663 104.348H138.344" stroke="url(#paint23_linear_1437_458)" stroke-miterlimit="10"/>
<path d="M142.72 104.348H155.401" stroke="url(#paint24_linear_1437_458)" stroke-miterlimit="10"/>
<path d="M79.9644 115.517H104.727" stroke="url(#paint25_linear_1437_458)" stroke-miterlimit="10"/>
<path d="M108.736 115.517H121.417" stroke="url(#paint26_linear_1437_458)" stroke-miterlimit="10"/>
<path d="M125.663 115.517H138.344" stroke="url(#paint27_linear_1437_458)" stroke-miterlimit="10"/>
<path d="M142.72 115.517H155.401" stroke="url(#paint28_linear_1437_458)" stroke-miterlimit="10"/>
<path d="M79.9644 126.686H104.727" stroke="url(#paint29_linear_1437_458)" stroke-miterlimit="10"/>
<path d="M108.736 126.686H121.417" stroke="url(#paint30_linear_1437_458)" stroke-miterlimit="10"/>
<path d="M125.663 126.686H138.344" stroke="url(#paint31_linear_1437_458)" stroke-miterlimit="10"/>
<path d="M142.72 126.686H155.401" stroke="url(#paint32_linear_1437_458)" stroke-miterlimit="10"/>
<path d="M79.9644 137.854H104.727" stroke="url(#paint33_linear_1437_458)" stroke-miterlimit="10"/>
<path d="M108.736 137.854H121.417" stroke="url(#paint34_linear_1437_458)" stroke-miterlimit="10"/>
<path d="M125.663 137.854H138.344" stroke="url(#paint35_linear_1437_458)" stroke-miterlimit="10"/>
<path d="M142.72 137.854H155.401" stroke="url(#paint36_linear_1437_458)" stroke-miterlimit="10"/>
<path d="M79.9644 149.022H104.727" stroke="url(#paint37_linear_1437_458)" stroke-miterlimit="10"/>
<path d="M108.736 149.022H121.417" stroke="url(#paint38_linear_1437_458)" stroke-miterlimit="10"/>
<path d="M125.663 149.022H138.344" stroke="url(#paint39_linear_1437_458)" stroke-miterlimit="10"/>
<path d="M142.72 149.022H155.401" stroke="url(#paint40_linear_1437_458)" stroke-miterlimit="10"/>
<path d="M79.9644 160.191H104.727" stroke="url(#paint41_linear_1437_458)" stroke-miterlimit="10"/>
<path d="M108.736 160.191H121.417" stroke="url(#paint42_linear_1437_458)" stroke-miterlimit="10"/>
<path d="M125.663 160.191H138.344" stroke="url(#paint43_linear_1437_458)" stroke-miterlimit="10"/>
<path d="M142.72 160.191H155.401" stroke="url(#paint44_linear_1437_458)" stroke-miterlimit="10"/>
<path d="M79.9644 171.36H104.727" stroke="url(#paint45_linear_1437_458)" stroke-miterlimit="10"/>
<path d="M108.736 171.36H121.417" stroke="url(#paint46_linear_1437_458)" stroke-miterlimit="10"/>
<path d="M125.663 171.36H138.344" stroke="url(#paint47_linear_1437_458)" stroke-miterlimit="10"/>
<path d="M142.72 171.36H155.401" stroke="url(#paint48_linear_1437_458)" stroke-miterlimit="10"/>
<path d="M79.9644 182.529H104.727" stroke="url(#paint49_linear_1437_458)" stroke-miterlimit="10"/>
<path d="M108.736 182.529H121.417" stroke="url(#paint50_linear_1437_458)" stroke-miterlimit="10"/>
<path d="M125.663 182.529H138.344" stroke="url(#paint51_linear_1437_458)" stroke-miterlimit="10"/>
<path d="M142.72 182.529H155.401" stroke="url(#paint52_linear_1437_458)" stroke-miterlimit="10"/>
<path d="M79.9644 193.698H104.727" stroke="url(#paint53_linear_1437_458)" stroke-miterlimit="10"/>
<path d="M108.736 193.698H121.417" stroke="url(#paint54_linear_1437_458)" stroke-miterlimit="10"/>
<path d="M125.663 193.698H138.344" stroke="url(#paint55_linear_1437_458)" stroke-miterlimit="10"/>
<path d="M142.72 193.698H155.401" stroke="url(#paint56_linear_1437_458)" stroke-miterlimit="10"/>
<path d="M404.528 81.7988H319.229C317.672 81.7988 316.41 83.063 316.41 84.6224V201.119C316.41 202.679 317.672 203.943 319.229 203.943H404.528C406.085 203.943 407.347 202.679 407.347 201.119V84.6224C407.347 83.063 406.085 81.7988 404.528 81.7988Z" fill="white" stroke="url(#paint57_linear_1437_458)" stroke-miterlimit="10"/>
<path d="M324.366 100.726V125.448C324.366 125.981 324.8 126.416 325.333 126.416H372.486C372.741 126.416 372.987 126.519 373.17 126.698L380.187 133.726C380.795 134.335 381.838 133.905 381.838 133.04V100.726C381.838 100.193 381.404 99.7578 380.871 99.7578H325.333C324.8 99.7578 324.366 100.193 324.366 100.726Z" fill="white" stroke="url(#paint58_linear_1437_458)" stroke-miterlimit="10"/>
<path d="M399.391 152.702V177.424C399.391 177.957 398.957 178.392 398.425 178.392H351.272C351.017 178.392 350.771 178.495 350.587 178.674L343.571 185.702C342.963 186.312 341.92 185.881 341.92 185.016V178.388V152.698C341.92 152.164 342.354 151.729 342.886 151.729H398.425C398.957 151.729 399.391 152.164 399.391 152.698V152.702Z" fill="white" stroke="url(#paint59_linear_1437_458)" stroke-miterlimit="10"/>
<path d="M328.433 105.589H377.099" stroke="url(#paint60_linear_1437_458)" stroke-miterlimit="10"/>
<path d="M328.433 112.284H377.099" stroke="url(#paint61_linear_1437_458)" stroke-miterlimit="10"/>
<path d="M328.433 118.98H366.36" stroke="url(#paint62_linear_1437_458)" stroke-miterlimit="10"/>
<path d="M394.997 157.968H346.332" stroke="url(#paint63_linear_1437_458)" stroke-miterlimit="10"/>
<path d="M394.997 164.664H346.332" stroke="url(#paint64_linear_1437_458)" stroke-miterlimit="10"/>
<path d="M394.997 171.36H357.071" stroke="url(#paint65_linear_1437_458)" stroke-miterlimit="10"/>
<path d="M163.59 105.589H194.165" stroke="url(#paint66_linear_1437_458)" stroke-miterlimit="10"/>
<path d="M163.59 143.438H194.165" stroke="url(#paint67_linear_1437_458)" stroke-miterlimit="10"/>
<path d="M163.59 181.288H194.165" stroke="url(#paint68_linear_1437_458)" stroke-miterlimit="10"/>
<path d="M285.106 105.589H315.681" stroke="url(#paint69_linear_1437_458)" stroke-miterlimit="10"/>
<path d="M285.106 143.438H315.681" stroke="url(#paint70_linear_1437_458)" stroke-miterlimit="10"/>
<path d="M285.106 181.288H315.681" stroke="url(#paint71_linear_1437_458)" stroke-miterlimit="10"/>
<path d="M117.685 81.7992V64.916H239.635V81.7992" stroke="url(#paint72_linear_1437_458)" stroke-miterlimit="10"/>
<path d="M239.635 203.943V220.831H117.685V203.943" stroke="url(#paint73_linear_1437_458)" stroke-miterlimit="10"/>
<defs>
<linearGradient id="paint0_linear_1437_458" x1="479.299" y1="23.2013" x2="152.454" y2="395.702" gradientUnits="userSpaceOnUse">
<stop stop-color="#FFF2AF"/>
<stop offset="0.5" stop-color="#00FF7F"/>
<stop offset="1" stop-color="#FF7D9C"/>
</linearGradient>
<linearGradient id="paint1_linear_1437_458" x1="436.047" y1="55.2299" x2="201.581" y2="354.153" gradientUnits="userSpaceOnUse">
<stop stop-color="#FFF2AF"/>
<stop offset="0.5" stop-color="#00FF7F"/>
<stop offset="1" stop-color="#FF7D9C"/>
</linearGradient>
<linearGradient id="paint2_linear_1437_458" x1="459.302" y1="39.3362" x2="179.099" y2="377.616" gradientUnits="userSpaceOnUse">
<stop stop-color="#FFF2AF"/>
<stop offset="0.5" stop-color="#00FF7F"/>
<stop offset="1" stop-color="#FF7D9C"/>
</linearGradient>
<linearGradient id="paint3_linear_1437_458" x1="285.102" y1="91.3557" x2="171.167" y2="148.672" gradientUnits="userSpaceOnUse">
<stop stop-color="#FFF2AF"/>
<stop offset="0.5" stop-color="#00FF7F"/>
<stop offset="1" stop-color="#FF7D9C"/>
</linearGradient>
<linearGradient id="paint4_linear_1437_458" x1="226.605" y1="91.3529" x2="209.968" y2="102.576" gradientUnits="userSpaceOnUse">
<stop stop-color="#FFF2AF"/>
<stop offset="0.5" stop-color="#00FF7F"/>
<stop offset="1" stop-color="#FF7D9C"/>
</linearGradient>
<linearGradient id="paint5_linear_1437_458" x1="232.266" y1="106.637" x2="217.38" y2="126.72" gradientUnits="userSpaceOnUse">
<stop stop-color="#FFF2AF"/>
<stop offset="0.5" stop-color="#00FF7F"/>
<stop offset="1" stop-color="#FF7D9C"/>
</linearGradient>
<linearGradient id="paint6_linear_1437_458" x1="266.067" y1="91.3529" x2="249.43" y2="102.576" gradientUnits="userSpaceOnUse">
<stop stop-color="#FFF2AF"/>
<stop offset="0.5" stop-color="#00FF7F"/>
<stop offset="1" stop-color="#FF7D9C"/>
</linearGradient>
<linearGradient id="paint7_linear_1437_458" x1="271.727" y1="106.637" x2="256.842" y2="126.72" gradientUnits="userSpaceOnUse">
<stop stop-color="#FFF2AF"/>
<stop offset="0.5" stop-color="#00FF7F"/>
<stop offset="1" stop-color="#FF7D9C"/>
</linearGradient>
<linearGradient id="paint8_linear_1437_458" x1="226.605" y1="128.615" x2="209.969" y2="139.838" gradientUnits="userSpaceOnUse">
<stop stop-color="#FFF2AF"/>
<stop offset="0.5" stop-color="#00FF7F"/>
<stop offset="1" stop-color="#FF7D9C"/>
</linearGradient>
<linearGradient id="paint9_linear_1437_458" x1="232.266" y1="143.898" x2="217.381" y2="163.981" gradientUnits="userSpaceOnUse">
<stop stop-color="#FFF2AF"/>
<stop offset="0.5" stop-color="#00FF7F"/>
<stop offset="1" stop-color="#FF7D9C"/>
</linearGradient>
<linearGradient id="paint10_linear_1437_458" x1="266.067" y1="128.615" x2="249.43" y2="139.838" gradientUnits="userSpaceOnUse">
<stop stop-color="#FFF2AF"/>
<stop offset="0.5" stop-color="#00FF7F"/>
<stop offset="1" stop-color="#FF7D9C"/>
</linearGradient>
<linearGradient id="paint11_linear_1437_458" x1="271.727" y1="143.898" x2="256.842" y2="163.981" gradientUnits="userSpaceOnUse">
<stop stop-color="#FFF2AF"/>
<stop offset="0.5" stop-color="#00FF7F"/>
<stop offset="1" stop-color="#FF7D9C"/>
</linearGradient>
<linearGradient id="paint12_linear_1437_458" x1="226.605" y1="165.872" x2="209.969" y2="177.096" gradientUnits="userSpaceOnUse">
<stop stop-color="#FFF2AF"/>
<stop offset="0.5" stop-color="#00FF7F"/>
<stop offset="1" stop-color="#FF7D9C"/>
</linearGradient>
<linearGradient id="paint13_linear_1437_458" x1="232.266" y1="181.156" x2="217.381" y2="201.239" gradientUnits="userSpaceOnUse">
<stop stop-color="#FFF2AF"/>
<stop offset="0.5" stop-color="#00FF7F"/>
<stop offset="1" stop-color="#FF7D9C"/>
</linearGradient>
<linearGradient id="paint14_linear_1437_458" x1="266.067" y1="165.872" x2="249.43" y2="177.096" gradientUnits="userSpaceOnUse">
<stop stop-color="#FFF2AF"/>
<stop offset="0.5" stop-color="#00FF7F"/>
<stop offset="1" stop-color="#FF7D9C"/>
</linearGradient>
<linearGradient id="paint15_linear_1437_458" x1="271.727" y1="181.156" x2="256.842" y2="201.239" gradientUnits="userSpaceOnUse">
<stop stop-color="#FFF2AF"/>
<stop offset="0.5" stop-color="#00FF7F"/>
<stop offset="1" stop-color="#FF7D9C"/>
</linearGradient>
<linearGradient id="paint16_linear_1437_458" x1="163.59" y1="91.3557" x2="49.6556" y2="148.672" gradientUnits="userSpaceOnUse">
<stop stop-color="#FFF2AF"/>
<stop offset="0.5" stop-color="#00FF7F"/>
<stop offset="1" stop-color="#FF7D9C"/>
</linearGradient>
<linearGradient id="paint17_linear_1437_458" x1="104.727" y1="93.257" x2="104.588" y2="95.5721" gradientUnits="userSpaceOnUse">
<stop stop-color="#FFF2AF"/>
<stop offset="0.5" stop-color="#00FF7F"/>
<stop offset="1" stop-color="#FF7D9C"/>
</linearGradient>
<linearGradient id="paint18_linear_1437_458" x1="121.417" y1="93.257" x2="121.149" y2="95.5492" gradientUnits="userSpaceOnUse">
<stop stop-color="#FFF2AF"/>
<stop offset="0.5" stop-color="#00FF7F"/>
<stop offset="1" stop-color="#FF7D9C"/>
</linearGradient>
<linearGradient id="paint19_linear_1437_458" x1="138.344" y1="93.257" x2="138.077" y2="95.5492" gradientUnits="userSpaceOnUse">
<stop stop-color="#FFF2AF"/>
<stop offset="0.5" stop-color="#00FF7F"/>
<stop offset="1" stop-color="#FF7D9C"/>
</linearGradient>
<linearGradient id="paint20_linear_1437_458" x1="155.401" y1="93.257" x2="155.134" y2="95.5492" gradientUnits="userSpaceOnUse">
<stop stop-color="#FFF2AF"/>
<stop offset="0.5" stop-color="#00FF7F"/>
<stop offset="1" stop-color="#FF7D9C"/>
</linearGradient>
<linearGradient id="paint21_linear_1437_458" x1="104.727" y1="104.426" x2="104.588" y2="106.741" gradientUnits="userSpaceOnUse">
<stop stop-color="#FFF2AF"/>
<stop offset="0.5" stop-color="#00FF7F"/>
<stop offset="1" stop-color="#FF7D9C"/>
</linearGradient>
<linearGradient id="paint22_linear_1437_458" x1="121.417" y1="104.426" x2="121.149" y2="106.718" gradientUnits="userSpaceOnUse">
<stop stop-color="#FFF2AF"/>
<stop offset="0.5" stop-color="#00FF7F"/>
<stop offset="1" stop-color="#FF7D9C"/>
</linearGradient>
<linearGradient id="paint23_linear_1437_458" x1="138.344" y1="104.426" x2="138.077" y2="106.718" gradientUnits="userSpaceOnUse">
<stop stop-color="#FFF2AF"/>
<stop offset="0.5" stop-color="#00FF7F"/>
<stop offset="1" stop-color="#FF7D9C"/>
</linearGradient>
<linearGradient id="paint24_linear_1437_458" x1="155.401" y1="104.426" x2="155.134" y2="106.718" gradientUnits="userSpaceOnUse">
<stop stop-color="#FFF2AF"/>
<stop offset="0.5" stop-color="#00FF7F"/>
<stop offset="1" stop-color="#FF7D9C"/>
</linearGradient>
<linearGradient id="paint25_linear_1437_458" x1="104.727" y1="115.595" x2="104.588" y2="117.91" gradientUnits="userSpaceOnUse">
<stop stop-color="#FFF2AF"/>
<stop offset="0.5" stop-color="#00FF7F"/>
<stop offset="1" stop-color="#FF7D9C"/>
</linearGradient>
<linearGradient id="paint26_linear_1437_458" x1="121.417" y1="115.595" x2="121.149" y2="117.887" gradientUnits="userSpaceOnUse">
<stop stop-color="#FFF2AF"/>
<stop offset="0.5" stop-color="#00FF7F"/>
<stop offset="1" stop-color="#FF7D9C"/>
</linearGradient>
<linearGradient id="paint27_linear_1437_458" x1="138.344" y1="115.595" x2="138.077" y2="117.887" gradientUnits="userSpaceOnUse">
<stop stop-color="#FFF2AF"/>
<stop offset="0.5" stop-color="#00FF7F"/>
<stop offset="1" stop-color="#FF7D9C"/>
</linearGradient>
<linearGradient id="paint28_linear_1437_458" x1="155.401" y1="115.595" x2="155.134" y2="117.887" gradientUnits="userSpaceOnUse">
<stop stop-color="#FFF2AF"/>
<stop offset="0.5" stop-color="#00FF7F"/>
<stop offset="1" stop-color="#FF7D9C"/>
</linearGradient>
<linearGradient id="paint29_linear_1437_458" x1="104.727" y1="126.764" x2="104.588" y2="129.079" gradientUnits="userSpaceOnUse">
<stop stop-color="#FFF2AF"/>
<stop offset="0.5" stop-color="#00FF7F"/>
<stop offset="1" stop-color="#FF7D9C"/>
</linearGradient>
<linearGradient id="paint30_linear_1437_458" x1="121.417" y1="126.764" x2="121.149" y2="129.056" gradientUnits="userSpaceOnUse">
<stop stop-color="#FFF2AF"/>
<stop offset="0.5" stop-color="#00FF7F"/>
<stop offset="1" stop-color="#FF7D9C"/>
</linearGradient>
<linearGradient id="paint31_linear_1437_458" x1="138.344" y1="126.764" x2="138.077" y2="129.056" gradientUnits="userSpaceOnUse">
<stop stop-color="#FFF2AF"/>
<stop offset="0.5" stop-color="#00FF7F"/>
<stop offset="1" stop-color="#FF7D9C"/>
</linearGradient>
<linearGradient id="paint32_linear_1437_458" x1="155.401" y1="126.764" x2="155.134" y2="129.056" gradientUnits="userSpaceOnUse">
<stop stop-color="#FFF2AF"/>
<stop offset="0.5" stop-color="#00FF7F"/>
<stop offset="1" stop-color="#FF7D9C"/>
</linearGradient>
<linearGradient id="paint33_linear_1437_458" x1="104.727" y1="137.932" x2="104.588" y2="140.247" gradientUnits="userSpaceOnUse">
<stop stop-color="#FFF2AF"/>
<stop offset="0.5" stop-color="#00FF7F"/>
<stop offset="1" stop-color="#FF7D9C"/>
</linearGradient>
<linearGradient id="paint34_linear_1437_458" x1="121.417" y1="137.932" x2="121.149" y2="140.224" gradientUnits="userSpaceOnUse">
<stop stop-color="#FFF2AF"/>
<stop offset="0.5" stop-color="#00FF7F"/>
<stop offset="1" stop-color="#FF7D9C"/>
</linearGradient>
<linearGradient id="paint35_linear_1437_458" x1="138.344" y1="137.932" x2="138.077" y2="140.224" gradientUnits="userSpaceOnUse">
<stop stop-color="#FFF2AF"/>
<stop offset="0.5" stop-color="#00FF7F"/>
<stop offset="1" stop-color="#FF7D9C"/>
</linearGradient>
<linearGradient id="paint36_linear_1437_458" x1="155.401" y1="137.932" x2="155.134" y2="140.224" gradientUnits="userSpaceOnUse">
<stop stop-color="#FFF2AF"/>
<stop offset="0.5" stop-color="#00FF7F"/>
<stop offset="1" stop-color="#FF7D9C"/>
</linearGradient>
<linearGradient id="paint37_linear_1437_458" x1="104.727" y1="149.101" x2="104.588" y2="151.416" gradientUnits="userSpaceOnUse">
<stop stop-color="#FFF2AF"/>
<stop offset="0.5" stop-color="#00FF7F"/>
<stop offset="1" stop-color="#FF7D9C"/>
</linearGradient>
<linearGradient id="paint38_linear_1437_458" x1="121.417" y1="149.101" x2="121.149" y2="151.393" gradientUnits="userSpaceOnUse">
<stop stop-color="#FFF2AF"/>
<stop offset="0.5" stop-color="#00FF7F"/>
<stop offset="1" stop-color="#FF7D9C"/>
</linearGradient>
<linearGradient id="paint39_linear_1437_458" x1="138.344" y1="149.101" x2="138.077" y2="151.393" gradientUnits="userSpaceOnUse">
<stop stop-color="#FFF2AF"/>
<stop offset="0.5" stop-color="#00FF7F"/>
<stop offset="1" stop-color="#FF7D9C"/>
</linearGradient>
<linearGradient id="paint40_linear_1437_458" x1="155.401" y1="149.101" x2="155.134" y2="151.393" gradientUnits="userSpaceOnUse">
<stop stop-color="#FFF2AF"/>
<stop offset="0.5" stop-color="#00FF7F"/>
<stop offset="1" stop-color="#FF7D9C"/>
</linearGradient>
<linearGradient id="paint41_linear_1437_458" x1="104.727" y1="160.27" x2="104.588" y2="162.585" gradientUnits="userSpaceOnUse">
<stop stop-color="#FFF2AF"/>
<stop offset="0.5" stop-color="#00FF7F"/>
<stop offset="1" stop-color="#FF7D9C"/>
</linearGradient>
<linearGradient id="paint42_linear_1437_458" x1="121.417" y1="160.27" x2="121.149" y2="162.562" gradientUnits="userSpaceOnUse">
<stop stop-color="#FFF2AF"/>
<stop offset="0.5" stop-color="#00FF7F"/>
<stop offset="1" stop-color="#FF7D9C"/>
</linearGradient>
<linearGradient id="paint43_linear_1437_458" x1="138.344" y1="160.27" x2="138.077" y2="162.562" gradientUnits="userSpaceOnUse">
<stop stop-color="#FFF2AF"/>
<stop offset="0.5" stop-color="#00FF7F"/>
<stop offset="1" stop-color="#FF7D9C"/>
</linearGradient>
<linearGradient id="paint44_linear_1437_458" x1="155.401" y1="160.27" x2="155.134" y2="162.562" gradientUnits="userSpaceOnUse">
<stop stop-color="#FFF2AF"/>
<stop offset="0.5" stop-color="#00FF7F"/>
<stop offset="1" stop-color="#FF7D9C"/>
</linearGradient>
<linearGradient id="paint45_linear_1437_458" x1="104.727" y1="171.439" x2="104.588" y2="173.754" gradientUnits="userSpaceOnUse">
<stop stop-color="#FFF2AF"/>
<stop offset="0.5" stop-color="#00FF7F"/>
<stop offset="1" stop-color="#FF7D9C"/>
</linearGradient>
<linearGradient id="paint46_linear_1437_458" x1="121.417" y1="171.439" x2="121.149" y2="173.731" gradientUnits="userSpaceOnUse">
<stop stop-color="#FFF2AF"/>
<stop offset="0.5" stop-color="#00FF7F"/>
<stop offset="1" stop-color="#FF7D9C"/>
</linearGradient>
<linearGradient id="paint47_linear_1437_458" x1="138.344" y1="171.439" x2="138.077" y2="173.731" gradientUnits="userSpaceOnUse">
<stop stop-color="#FFF2AF"/>
<stop offset="0.5" stop-color="#00FF7F"/>
<stop offset="1" stop-color="#FF7D9C"/>
</linearGradient>
<linearGradient id="paint48_linear_1437_458" x1="155.401" y1="171.439" x2="155.134" y2="173.731" gradientUnits="userSpaceOnUse">
<stop stop-color="#FFF2AF"/>
<stop offset="0.5" stop-color="#00FF7F"/>
<stop offset="1" stop-color="#FF7D9C"/>
</linearGradient>
<linearGradient id="paint49_linear_1437_458" x1="104.727" y1="182.608" x2="104.588" y2="184.923" gradientUnits="userSpaceOnUse">
<stop stop-color="#FFF2AF"/>
<stop offset="0.5" stop-color="#00FF7F"/>
<stop offset="1" stop-color="#FF7D9C"/>
</linearGradient>
<linearGradient id="paint50_linear_1437_458" x1="121.417" y1="182.608" x2="121.149" y2="184.9" gradientUnits="userSpaceOnUse">
<stop stop-color="#FFF2AF"/>
<stop offset="0.5" stop-color="#00FF7F"/>
<stop offset="1" stop-color="#FF7D9C"/>
</linearGradient>
<linearGradient id="paint51_linear_1437_458" x1="138.344" y1="182.608" x2="138.077" y2="184.9" gradientUnits="userSpaceOnUse">
<stop stop-color="#FFF2AF"/>
<stop offset="0.5" stop-color="#00FF7F"/>
<stop offset="1" stop-color="#FF7D9C"/>
</linearGradient>
<linearGradient id="paint52_linear_1437_458" x1="155.401" y1="182.608" x2="155.134" y2="184.9" gradientUnits="userSpaceOnUse">
<stop stop-color="#FFF2AF"/>
<stop offset="0.5" stop-color="#00FF7F"/>
<stop offset="1" stop-color="#FF7D9C"/>
</linearGradient>
<linearGradient id="paint53_linear_1437_458" x1="104.727" y1="193.776" x2="104.588" y2="196.092" gradientUnits="userSpaceOnUse">
<stop stop-color="#FFF2AF"/>
<stop offset="0.5" stop-color="#00FF7F"/>
<stop offset="1" stop-color="#FF7D9C"/>
</linearGradient>
<linearGradient id="paint54_linear_1437_458" x1="121.417" y1="193.776" x2="121.149" y2="196.069" gradientUnits="userSpaceOnUse">
<stop stop-color="#FFF2AF"/>
<stop offset="0.5" stop-color="#00FF7F"/>
<stop offset="1" stop-color="#FF7D9C"/>
</linearGradient>
<linearGradient id="paint55_linear_1437_458" x1="138.344" y1="193.776" x2="138.077" y2="196.069" gradientUnits="userSpaceOnUse">
<stop stop-color="#FFF2AF"/>
<stop offset="0.5" stop-color="#00FF7F"/>
<stop offset="1" stop-color="#FF7D9C"/>
</linearGradient>
<linearGradient id="paint56_linear_1437_458" x1="155.401" y1="193.776" x2="155.134" y2="196.069" gradientUnits="userSpaceOnUse">
<stop stop-color="#FFF2AF"/>
<stop offset="0.5" stop-color="#00FF7F"/>
<stop offset="1" stop-color="#FF7D9C"/>
</linearGradient>
<linearGradient id="paint57_linear_1437_458" x1="407.347" y1="91.3557" x2="293.413" y2="148.672" gradientUnits="userSpaceOnUse">
<stop stop-color="#FFF2AF"/>
<stop offset="0.5" stop-color="#00FF7F"/>
<stop offset="1" stop-color="#FF7D9C"/>
</linearGradient>
<linearGradient id="paint58_linear_1437_458" x1="381.838" y1="102.438" x2="342.355" y2="147.199" gradientUnits="userSpaceOnUse">
<stop stop-color="#FFF2AF"/>
<stop offset="0.5" stop-color="#00FF7F"/>
<stop offset="1" stop-color="#FF7D9C"/>
</linearGradient>
<linearGradient id="paint59_linear_1437_458" x1="399.391" y1="154.41" x2="359.903" y2="199.172" gradientUnits="userSpaceOnUse">
<stop stop-color="#FFF2AF"/>
<stop offset="0.5" stop-color="#00FF7F"/>
<stop offset="1" stop-color="#FF7D9C"/>
</linearGradient>
<linearGradient id="paint60_linear_1437_458" x1="377.099" y1="105.667" x2="377.028" y2="107.988" gradientUnits="userSpaceOnUse">
<stop stop-color="#FFF2AF"/>
<stop offset="0.5" stop-color="#00FF7F"/>
<stop offset="1" stop-color="#FF7D9C"/>
</linearGradient>
<linearGradient id="paint61_linear_1437_458" x1="377.099" y1="112.362" x2="377.028" y2="114.684" gradientUnits="userSpaceOnUse">
<stop stop-color="#FFF2AF"/>
<stop offset="0.5" stop-color="#00FF7F"/>
<stop offset="1" stop-color="#FF7D9C"/>
</linearGradient>
<linearGradient id="paint62_linear_1437_458" x1="366.36" y1="119.059" x2="366.27" y2="121.379" gradientUnits="userSpaceOnUse">
<stop stop-color="#FFF2AF"/>
<stop offset="0.5" stop-color="#00FF7F"/>
<stop offset="1" stop-color="#FF7D9C"/>
</linearGradient>
<linearGradient id="paint63_linear_1437_458" x1="394.997" y1="158.046" x2="394.927" y2="160.367" gradientUnits="userSpaceOnUse">
<stop stop-color="#FFF2AF"/>
<stop offset="0.5" stop-color="#00FF7F"/>
<stop offset="1" stop-color="#FF7D9C"/>
</linearGradient>
<linearGradient id="paint64_linear_1437_458" x1="394.997" y1="164.742" x2="394.927" y2="167.064" gradientUnits="userSpaceOnUse">
<stop stop-color="#FFF2AF"/>
<stop offset="0.5" stop-color="#00FF7F"/>
<stop offset="1" stop-color="#FF7D9C"/>
</linearGradient>
<linearGradient id="paint65_linear_1437_458" x1="394.997" y1="171.439" x2="394.907" y2="173.759" gradientUnits="userSpaceOnUse">
<stop stop-color="#FFF2AF"/>
<stop offset="0.5" stop-color="#00FF7F"/>
<stop offset="1" stop-color="#FF7D9C"/>
</linearGradient>
<linearGradient id="paint66_linear_1437_458" x1="194.165" y1="105.667" x2="194.052" y2="107.985" gradientUnits="userSpaceOnUse">
<stop stop-color="#FFF2AF"/>
<stop offset="0.5" stop-color="#00FF7F"/>
<stop offset="1" stop-color="#FF7D9C"/>
</linearGradient>
<linearGradient id="paint67_linear_1437_458" x1="194.165" y1="143.517" x2="194.052" y2="145.835" gradientUnits="userSpaceOnUse">
<stop stop-color="#FFF2AF"/>
<stop offset="0.5" stop-color="#00FF7F"/>
<stop offset="1" stop-color="#FF7D9C"/>
</linearGradient>
<linearGradient id="paint68_linear_1437_458" x1="194.165" y1="181.366" x2="194.052" y2="183.684" gradientUnits="userSpaceOnUse">
<stop stop-color="#FFF2AF"/>
<stop offset="0.5" stop-color="#00FF7F"/>
<stop offset="1" stop-color="#FF7D9C"/>
</linearGradient>
<linearGradient id="paint69_linear_1437_458" x1="315.681" y1="105.667" x2="315.569" y2="107.985" gradientUnits="userSpaceOnUse">
<stop stop-color="#FFF2AF"/>
<stop offset="0.5" stop-color="#00FF7F"/>
<stop offset="1" stop-color="#FF7D9C"/>
</linearGradient>
<linearGradient id="paint70_linear_1437_458" x1="315.681" y1="143.517" x2="315.569" y2="145.835" gradientUnits="userSpaceOnUse">
<stop stop-color="#FFF2AF"/>
<stop offset="0.5" stop-color="#00FF7F"/>
<stop offset="1" stop-color="#FF7D9C"/>
</linearGradient>
<linearGradient id="paint71_linear_1437_458" x1="315.681" y1="181.366" x2="315.569" y2="183.684" gradientUnits="userSpaceOnUse">
<stop stop-color="#FFF2AF"/>
<stop offset="0.5" stop-color="#00FF7F"/>
<stop offset="1" stop-color="#FF7D9C"/>
</linearGradient>
<linearGradient id="paint72_linear_1437_458" x1="239.635" y1="66.237" x2="231.922" y2="103.884" gradientUnits="userSpaceOnUse">
<stop stop-color="#FFF2AF"/>
<stop offset="0.5" stop-color="#00FF7F"/>
<stop offset="1" stop-color="#FF7D9C"/>
</linearGradient>
<linearGradient id="paint73_linear_1437_458" x1="239.635" y1="205.265" x2="231.918" y2="242.921" gradientUnits="userSpaceOnUse">
<stop stop-color="#FFF2AF"/>
<stop offset="0.5" stop-color="#00FF7F"/>
<stop offset="1" stop-color="#FF7D9C"/>
</linearGradient>
</defs>
</svg>
