<svg width="20" height="21" viewBox="0 0 20 21" fill="none" xmlns="http://www.w3.org/2000/svg">
<mask id="mask0_960_743" style="mask-type:alpha" maskUnits="userSpaceOnUse" x="0" y="0" width="20" height="21">
<rect y="0.5" width="20" height="20" fill="#D9D9D9"/>
</mask>
<g mask="url(#mask0_960_743)">
<path d="M10 19.2499C9 18.3055 7.85417 17.5833 6.5625 17.0833C5.27083 16.5833 3.91667 16.3333 2.5 16.3333V7.16658C3.90278 7.16658 5.25 7.42006 6.54167 7.927C7.83333 8.43395 8.98611 9.16659 10 10.1249C11.0139 9.16659 12.1667 8.43395 13.4583 7.927C14.75 7.42006 16.0972 7.16658 17.5 7.16658V16.3333C16.0694 16.3333 14.7118 16.5833 13.4271 17.0833C12.1424 17.5833 11 18.3055 10 19.2499ZM10 7.99992C9.08333 7.99992 8.29861 7.67353 7.64583 7.02075C6.99306 6.36797 6.66667 5.58325 6.66667 4.66659C6.66667 3.74992 6.99306 2.9652 7.64583 2.31242C8.29861 1.65964 9.08333 1.33325 10 1.33325C10.9167 1.33325 11.7014 1.65964 12.3542 2.31242C13.0069 2.9652 13.3333 3.74992 13.3333 4.66659C13.3333 5.58325 13.0069 6.36797 12.3542 7.02075C11.7014 7.67353 10.9167 7.99992 10 7.99992Z" fill="#1C1B1F"/>
</g>
</svg>
