<svg width="637" height="572" viewBox="0 0 637 572" fill="none" xmlns="http://www.w3.org/2000/svg">
<g clip-path="url(#clip0_1437_29)">
<path d="M374.44 175.729H266.341C262.322 175.729 259.065 178.985 259.065 183.001V388.999C259.065 393.015 262.322 396.271 266.341 396.271H374.44C378.458 396.271 381.716 393.015 381.716 388.999V183.001C381.716 178.985 378.458 175.729 374.44 175.729Z" fill="white" stroke="url(#paint0_linear_1437_29)" stroke-miterlimit="10"/>
<path d="M227.112 55.4048H104.462V516.595H227.112V55.4048Z" fill="white" stroke="url(#paint1_linear_1437_29)" stroke-miterlimit="10"/>
<path d="M192.356 41.189H69.7054V530.811H192.356V41.189Z" fill="white" stroke="url(#paint2_linear_1437_29)" stroke-miterlimit="10"/>
<path d="M157.6 22.3062H34.9493V549.694H157.6V22.3062Z" fill="white" stroke="url(#paint3_linear_1437_29)" stroke-miterlimit="10"/>
<path d="M122.844 0.192871H0.193115V571.807H122.844V0.192871Z" fill="white" stroke="url(#paint4_linear_1437_29)" stroke-miterlimit="10"/>
<path d="M409.891 516.596H532.542V55.4053H409.891L409.891 516.596Z" fill="white" stroke="url(#paint5_linear_1437_29)" stroke-miterlimit="10"/>
<path d="M444.648 530.812H567.298L567.298 41.1892H444.648L444.648 530.812Z" fill="white" stroke="url(#paint6_linear_1437_29)" stroke-miterlimit="10"/>
<path d="M479.404 549.693H602.055L602.055 22.3059H479.404L479.404 549.693Z" fill="white" stroke="url(#paint7_linear_1437_29)" stroke-miterlimit="10"/>
<path d="M514.16 571.807H636.811L636.811 0.192627H514.16L514.16 571.807Z" fill="white" stroke="url(#paint8_linear_1437_29)" stroke-miterlimit="10"/>
<path d="M281.772 246.569C288.96 246.569 294.787 240.746 294.787 233.561C294.787 226.377 288.96 220.554 281.772 220.554C274.585 220.554 268.758 226.377 268.758 233.561C268.758 240.746 274.585 246.569 281.772 246.569Z" fill="white" stroke="url(#paint9_linear_1437_29)" stroke-miterlimit="10"/>
<path d="M320.39 246.569C327.578 246.569 333.405 240.746 333.405 233.561C333.405 226.377 327.578 220.554 320.39 220.554C313.203 220.554 307.376 226.377 307.376 233.561C307.376 240.746 313.203 246.569 320.39 246.569Z" fill="white" stroke="url(#paint10_linear_1437_29)" stroke-miterlimit="10"/>
<path d="M359.008 246.569C366.196 246.569 372.023 240.746 372.023 233.561C372.023 226.377 366.196 220.554 359.008 220.554C351.821 220.554 345.994 226.377 345.994 233.561C345.994 240.746 351.821 246.569 359.008 246.569Z" fill="white" stroke="url(#paint11_linear_1437_29)" stroke-miterlimit="10"/>
<path d="M357.857 193.747H282.923V205.967H357.857V193.747Z" fill="white" stroke="url(#paint12_linear_1437_29)" stroke-miterlimit="10"/>
<path d="M372.023 275.464H268.758V287.685H372.023V275.464Z" fill="white" stroke="url(#paint13_linear_1437_29)" stroke-miterlimit="10"/>
<path d="M372.023 292.437H268.758V304.657H372.023V292.437Z" fill="white" stroke="url(#paint14_linear_1437_29)" stroke-miterlimit="10"/>
<path d="M372.023 309.404H268.758V321.625H372.023V309.404Z" fill="white" stroke="url(#paint15_linear_1437_29)" stroke-miterlimit="10"/>
<path d="M309.906 354.978H268.758V367.198H309.906V354.978Z" fill="white" stroke="url(#paint16_linear_1437_29)" stroke-miterlimit="10"/>
<path d="M372.023 337.234H268.758V339.365H372.023V337.234Z" fill="white" stroke="url(#paint17_linear_1437_29)" stroke-miterlimit="10"/>
<path d="M372.023 341.77H268.758V343.9H372.023V341.77Z" fill="white" stroke="url(#paint18_linear_1437_29)" stroke-miterlimit="10"/>
<path d="M372.023 346.104H268.758V348.235H372.023V346.104Z" fill="white" stroke="url(#paint19_linear_1437_29)" stroke-miterlimit="10"/>
<path d="M372.023 332.703H268.758V334.833H372.023V332.703Z" fill="white" stroke="url(#paint20_linear_1437_29)" stroke-miterlimit="10"/>
<path d="M372.023 328.364H268.758V330.495H372.023V328.364Z" fill="white" stroke="url(#paint21_linear_1437_29)" stroke-miterlimit="10"/>
<path d="M372.023 354.978H314.903V367.198H372.023V354.978Z" fill="white" stroke="url(#paint22_linear_1437_29)" stroke-miterlimit="10"/>
<path d="M309.906 371.927H268.758V384.147H309.906V371.927Z" fill="white" stroke="url(#paint23_linear_1437_29)" stroke-miterlimit="10"/>
<path d="M372.023 371.927H314.903V384.147H372.023V371.927Z" fill="white" stroke="url(#paint24_linear_1437_29)" stroke-miterlimit="10"/>
<path d="M309.906 388.879H268.758V396.271H309.906V388.879Z" fill="white" stroke="url(#paint25_linear_1437_29)" stroke-miterlimit="10"/>
<path d="M372.023 388.879H314.903V396.271H372.023V388.879Z" fill="white" stroke="url(#paint26_linear_1437_29)" stroke-miterlimit="10"/>
</g>
<defs>
<linearGradient id="paint0_linear_1437_29" x1="381.716" y1="192.985" x2="212.985" y2="256.39" gradientUnits="userSpaceOnUse">
<stop stop-color="#FFF2AF"/>
<stop offset="0.5" stop-color="#00FF7F"/>
<stop offset="1" stop-color="#FF7D9C"/>
</linearGradient>
<linearGradient id="paint1_linear_1437_29" x1="227.112" y1="91.4894" x2="40.5788" y2="125.009" gradientUnits="userSpaceOnUse">
<stop stop-color="#FFF2AF"/>
<stop offset="0.5" stop-color="#00FF7F"/>
<stop offset="1" stop-color="#FF7D9C"/>
</linearGradient>
<linearGradient id="paint2_linear_1437_29" x1="192.356" y1="79.4981" x2="5.16227" y2="111.183" gradientUnits="userSpaceOnUse">
<stop stop-color="#FFF2AF"/>
<stop offset="0.5" stop-color="#00FF7F"/>
<stop offset="1" stop-color="#FF7D9C"/>
</linearGradient>
<linearGradient id="paint3_linear_1437_29" x1="157.6" y1="63.5701" x2="-30.3166" y2="93.0998" gradientUnits="userSpaceOnUse">
<stop stop-color="#FFF2AF"/>
<stop offset="0.5" stop-color="#00FF7F"/>
<stop offset="1" stop-color="#FF7D9C"/>
</linearGradient>
<linearGradient id="paint4_linear_1437_29" x1="122.844" y1="44.9172" x2="-65.7489" y2="72.2602" gradientUnits="userSpaceOnUse">
<stop stop-color="#FFF2AF"/>
<stop offset="0.5" stop-color="#00FF7F"/>
<stop offset="1" stop-color="#FF7D9C"/>
</linearGradient>
<linearGradient id="paint5_linear_1437_29" x1="409.891" y1="480.511" x2="596.425" y2="446.991" gradientUnits="userSpaceOnUse">
<stop stop-color="#FFF2AF"/>
<stop offset="0.5" stop-color="#00FF7F"/>
<stop offset="1" stop-color="#FF7D9C"/>
</linearGradient>
<linearGradient id="paint6_linear_1437_29" x1="444.648" y1="492.502" x2="631.842" y2="460.817" gradientUnits="userSpaceOnUse">
<stop stop-color="#FFF2AF"/>
<stop offset="0.5" stop-color="#00FF7F"/>
<stop offset="1" stop-color="#FF7D9C"/>
</linearGradient>
<linearGradient id="paint7_linear_1437_29" x1="479.404" y1="508.429" x2="667.32" y2="478.9" gradientUnits="userSpaceOnUse">
<stop stop-color="#FFF2AF"/>
<stop offset="0.5" stop-color="#00FF7F"/>
<stop offset="1" stop-color="#FF7D9C"/>
</linearGradient>
<linearGradient id="paint8_linear_1437_29" x1="514.16" y1="527.082" x2="702.753" y2="499.739" gradientUnits="userSpaceOnUse">
<stop stop-color="#FFF2AF"/>
<stop offset="0.5" stop-color="#00FF7F"/>
<stop offset="1" stop-color="#FF7D9C"/>
</linearGradient>
<linearGradient id="paint9_linear_1437_29" x1="294.787" y1="222.589" x2="266.74" y2="241.549" gradientUnits="userSpaceOnUse">
<stop stop-color="#FFF2AF"/>
<stop offset="0.5" stop-color="#00FF7F"/>
<stop offset="1" stop-color="#FF7D9C"/>
</linearGradient>
<linearGradient id="paint10_linear_1437_29" x1="333.405" y1="222.589" x2="305.359" y2="241.549" gradientUnits="userSpaceOnUse">
<stop stop-color="#FFF2AF"/>
<stop offset="0.5" stop-color="#00FF7F"/>
<stop offset="1" stop-color="#FF7D9C"/>
</linearGradient>
<linearGradient id="paint11_linear_1437_29" x1="372.023" y1="222.589" x2="343.976" y2="241.549" gradientUnits="userSpaceOnUse">
<stop stop-color="#FFF2AF"/>
<stop offset="0.5" stop-color="#00FF7F"/>
<stop offset="1" stop-color="#FF7D9C"/>
</linearGradient>
<linearGradient id="paint12_linear_1437_29" x1="357.857" y1="194.703" x2="351.382" y2="221.534" gradientUnits="userSpaceOnUse">
<stop stop-color="#FFF2AF"/>
<stop offset="0.5" stop-color="#00FF7F"/>
<stop offset="1" stop-color="#FF7D9C"/>
</linearGradient>
<linearGradient id="paint13_linear_1437_29" x1="372.023" y1="276.421" x2="367.198" y2="303.969" gradientUnits="userSpaceOnUse">
<stop stop-color="#FFF2AF"/>
<stop offset="0.5" stop-color="#00FF7F"/>
<stop offset="1" stop-color="#FF7D9C"/>
</linearGradient>
<linearGradient id="paint14_linear_1437_29" x1="372.023" y1="293.393" x2="367.198" y2="320.941" gradientUnits="userSpaceOnUse">
<stop stop-color="#FFF2AF"/>
<stop offset="0.5" stop-color="#00FF7F"/>
<stop offset="1" stop-color="#FF7D9C"/>
</linearGradient>
<linearGradient id="paint15_linear_1437_29" x1="372.023" y1="310.36" x2="367.198" y2="337.909" gradientUnits="userSpaceOnUse">
<stop stop-color="#FFF2AF"/>
<stop offset="0.5" stop-color="#00FF7F"/>
<stop offset="1" stop-color="#FF7D9C"/>
</linearGradient>
<linearGradient id="paint16_linear_1437_29" x1="309.906" y1="355.934" x2="299.446" y2="379.731" gradientUnits="userSpaceOnUse">
<stop stop-color="#FFF2AF"/>
<stop offset="0.5" stop-color="#00FF7F"/>
<stop offset="1" stop-color="#FF7D9C"/>
</linearGradient>
<linearGradient id="paint17_linear_1437_29" x1="372.023" y1="337.401" x2="371.872" y2="342.347" gradientUnits="userSpaceOnUse">
<stop stop-color="#FFF2AF"/>
<stop offset="0.5" stop-color="#00FF7F"/>
<stop offset="1" stop-color="#FF7D9C"/>
</linearGradient>
<linearGradient id="paint18_linear_1437_29" x1="372.023" y1="341.936" x2="371.872" y2="346.882" gradientUnits="userSpaceOnUse">
<stop stop-color="#FFF2AF"/>
<stop offset="0.5" stop-color="#00FF7F"/>
<stop offset="1" stop-color="#FF7D9C"/>
</linearGradient>
<linearGradient id="paint19_linear_1437_29" x1="372.023" y1="346.271" x2="371.872" y2="351.217" gradientUnits="userSpaceOnUse">
<stop stop-color="#FFF2AF"/>
<stop offset="0.5" stop-color="#00FF7F"/>
<stop offset="1" stop-color="#FF7D9C"/>
</linearGradient>
<linearGradient id="paint20_linear_1437_29" x1="372.023" y1="332.869" x2="371.872" y2="337.815" gradientUnits="userSpaceOnUse">
<stop stop-color="#FFF2AF"/>
<stop offset="0.5" stop-color="#00FF7F"/>
<stop offset="1" stop-color="#FF7D9C"/>
</linearGradient>
<linearGradient id="paint21_linear_1437_29" x1="372.023" y1="328.531" x2="371.872" y2="333.477" gradientUnits="userSpaceOnUse">
<stop stop-color="#FFF2AF"/>
<stop offset="0.5" stop-color="#00FF7F"/>
<stop offset="1" stop-color="#FF7D9C"/>
</linearGradient>
<linearGradient id="paint22_linear_1437_29" x1="372.023" y1="355.934" x2="363.852" y2="381.741" gradientUnits="userSpaceOnUse">
<stop stop-color="#FFF2AF"/>
<stop offset="0.5" stop-color="#00FF7F"/>
<stop offset="1" stop-color="#FF7D9C"/>
</linearGradient>
<linearGradient id="paint23_linear_1437_29" x1="309.906" y1="372.883" x2="299.446" y2="396.679" gradientUnits="userSpaceOnUse">
<stop stop-color="#FFF2AF"/>
<stop offset="0.5" stop-color="#00FF7F"/>
<stop offset="1" stop-color="#FF7D9C"/>
</linearGradient>
<linearGradient id="paint24_linear_1437_29" x1="372.023" y1="372.883" x2="363.852" y2="398.689" gradientUnits="userSpaceOnUse">
<stop stop-color="#FFF2AF"/>
<stop offset="0.5" stop-color="#00FF7F"/>
<stop offset="1" stop-color="#FF7D9C"/>
</linearGradient>
<linearGradient id="paint25_linear_1437_29" x1="309.906" y1="389.458" x2="305.641" y2="405.498" gradientUnits="userSpaceOnUse">
<stop stop-color="#FFF2AF"/>
<stop offset="0.5" stop-color="#00FF7F"/>
<stop offset="1" stop-color="#FF7D9C"/>
</linearGradient>
<linearGradient id="paint26_linear_1437_29" x1="372.023" y1="389.458" x2="368.85" y2="406.024" gradientUnits="userSpaceOnUse">
<stop stop-color="#FFF2AF"/>
<stop offset="0.5" stop-color="#00FF7F"/>
<stop offset="1" stop-color="#FF7D9C"/>
</linearGradient>
<clipPath id="clip0_1437_29">
<rect width="637" height="572" fill="white"/>
</clipPath>
</defs>
</svg>
