<svg width="22" height="18" viewBox="0 0 22 18" fill="none" xmlns="http://www.w3.org/2000/svg">
<path d="M10.4806 4.93673L4.53872 9.04707L2.26953 7.47721L10.4818 1.79459V4.84509L10.4806 4.93673Z" fill="#282828"/>
<path d="M11.0605 1.42442L13.4949 3.10762C13.2164 3.33551 12.9451 3.57424 12.6846 3.82383L11.5549 4.90658L11.0448 4.5533C11.0448 4.5533 11.0388 4.54606 11.0388 4.54124V1.43527C11.0388 1.42442 11.0509 1.41719 11.0605 1.42442Z" fill="#282828"/>
<path d="M19.808 7.47601L17.5389 9.04708L16.1848 8.11023C16.9577 7.63396 17.6799 7.08053 18.3407 6.46078L19.808 7.47601Z" fill="#282828"/>
<path d="M1.79929 7.82927L5.6914 10.5217L3.78755 12.3459L1.78362 10.9594C1.78362 10.9594 1.77759 10.9521 1.77759 10.9473V7.84133C1.77759 7.82927 1.79085 7.82324 1.79929 7.82927Z" fill="#282828"/>
<path d="M11.0388 14.2293V17.3353C11.0388 17.3473 11.0255 17.3534 11.0171 17.3473L6.25562 14.0533L8.68999 12.5967L11.0327 14.2172C11.0327 14.2172 11.0388 14.2245 11.0388 14.2293Z" fill="#282828"/>
<path d="M20.2999 7.84135V10.9473C20.2999 10.9473 20.2975 10.9558 20.2939 10.9582L11.5957 16.976V13.8375L20.2782 7.82929C20.2878 7.82326 20.2999 7.82929 20.2999 7.84014V7.84135Z" fill="#282828"/>
<path d="M21.4925 0.356141L18.7953 1.06752C16.6575 1.63181 14.6994 2.73023 13.103 4.2591L0.409075 16.4177C0.248713 16.5721 0.442836 16.8277 0.634548 16.7131L15.7183 7.68941C17.6149 6.55482 19.1932 4.95601 20.3025 3.04372L21.7023 0.631048C21.7855 0.487566 21.6541 0.31394 21.4925 0.356141Z" fill="#282828"/>
</svg>
