<svg width="631" height="631" viewBox="0 0 631 631" fill="none" xmlns="http://www.w3.org/2000/svg">
<g clip-path="url(#clip0_1437_258)">
<path d="M315.498 630.764C489.614 630.764 630.764 489.614 630.764 315.498C630.764 141.381 489.614 0.231445 315.498 0.231445C141.381 0.231445 0.231445 141.381 0.231445 315.498C0.231445 489.614 141.381 630.764 315.498 630.764Z" fill="white" stroke="url(#paint0_linear_1437_258)" stroke-miterlimit="10"/>
<path d="M315.498 586.084C464.939 586.084 586.084 464.939 586.084 315.498C586.084 166.057 464.939 44.9111 315.498 44.9111C166.057 44.9111 44.9111 166.057 44.9111 315.498C44.9111 464.939 166.057 586.084 315.498 586.084Z" fill="white" stroke="url(#paint1_linear_1437_258)" stroke-miterlimit="10"/>
<path d="M315.498 539.988C439.48 539.988 539.988 439.48 539.988 315.497C539.988 191.515 439.48 91.0068 315.498 91.0068C191.515 91.0068 91.0073 191.515 91.0073 315.497C91.0073 439.48 191.515 539.988 315.498 539.988Z" fill="white" stroke="url(#paint2_linear_1437_258)" stroke-miterlimit="10"/>
<path d="M315.498 493.179C413.628 493.179 493.179 413.628 493.179 315.498C493.179 217.367 413.628 137.816 315.498 137.816C217.367 137.816 137.816 217.367 137.816 315.498C137.816 413.628 217.367 493.179 315.498 493.179Z" fill="white" stroke="url(#paint3_linear_1437_258)" stroke-miterlimit="10"/>
<path d="M315.498 454.884C392.478 454.884 454.883 392.479 454.883 315.498C454.883 238.517 392.478 176.112 315.498 176.112C238.517 176.112 176.112 238.517 176.112 315.498C176.112 392.479 238.517 454.884 315.498 454.884Z" fill="white" stroke="url(#paint4_linear_1437_258)" stroke-miterlimit="10"/>
<path d="M315.498 416.412C371.231 416.412 416.412 371.231 416.412 315.497C416.412 259.764 371.231 214.583 315.498 214.583C259.764 214.583 214.583 259.764 214.583 315.497C214.583 371.231 259.764 416.412 315.498 416.412Z" fill="white" stroke="url(#paint5_linear_1437_258)" stroke-miterlimit="10"/>
<path d="M315.007 317.665C330.072 317.665 342.284 305.452 342.284 290.388C342.284 275.323 330.072 263.11 315.007 263.11C299.942 263.11 287.73 275.323 287.73 290.388C287.73 305.452 299.942 317.665 315.007 317.665Z" fill="white" stroke="url(#paint6_linear_1437_258)" stroke-miterlimit="10"/>
<path d="M358.177 360.835C358.177 336.993 338.849 317.665 315.007 317.665C291.165 317.665 271.837 336.993 271.837 360.835H358.177Z" fill="white" stroke="url(#paint7_linear_1437_258)" stroke-miterlimit="10"/>
<path d="M354.344 414.25L341.21 385.162L359.737 376.797L315.011 348.834C314.97 348.811 314.919 348.834 314.914 348.881L306.308 400.921L324.835 392.556L337.969 421.643L354.344 414.25Z" fill="white" stroke="url(#paint8_linear_1437_258)" stroke-miterlimit="10"/>
<path d="M347.964 382.11L341.213 385.158L354.345 414.242L361.096 411.194L347.964 382.11Z" fill="white" stroke="url(#paint9_linear_1437_258)" stroke-miterlimit="10"/>
<path d="M366.492 373.751L359.742 376.797L315.035 348.848C314.988 348.821 314.993 348.756 315.044 348.733L321.65 345.751C321.65 345.751 321.692 345.742 321.71 345.751L366.492 373.746V373.751Z" fill="white" stroke="url(#paint10_linear_1437_258)" stroke-miterlimit="10"/>
<path d="M258.693 283.457C258.693 303.822 242.18 320.336 221.815 320.336H213.065C233.435 320.336 249.944 303.822 249.944 283.457C249.944 263.092 233.435 246.578 213.065 246.578H221.815C242.18 246.578 258.693 263.087 258.693 283.457Z" fill="white" stroke="url(#paint11_linear_1437_258)" stroke-miterlimit="10"/>
<path d="M213.069 320.336C233.437 320.336 249.948 303.825 249.948 283.457C249.948 263.089 233.437 246.578 213.069 246.578C192.702 246.578 176.19 263.089 176.19 283.457C176.19 303.825 192.702 320.336 213.069 320.336Z" fill="white" stroke="url(#paint12_linear_1437_258)" stroke-miterlimit="10"/>
<path d="M410.824 326.197C410.824 335.299 403.445 342.678 394.343 342.678H390.431C399.537 342.678 406.912 335.299 406.912 326.197C406.912 317.095 399.533 309.716 390.431 309.716H394.343C403.445 309.716 410.824 317.095 410.824 326.197Z" fill="white" stroke="url(#paint13_linear_1437_258)" stroke-miterlimit="10"/>
<path d="M390.431 342.678C399.533 342.678 406.912 335.299 406.912 326.197C406.912 317.095 399.533 309.716 390.431 309.716C381.329 309.716 373.95 317.095 373.95 326.197C373.95 335.299 381.329 342.678 390.431 342.678Z" fill="white" stroke="url(#paint14_linear_1437_258)" stroke-miterlimit="10"/>
<path d="M448.61 254.592L454.166 251.494C454.735 251.133 455.018 250.365 454.638 249.675L432.555 210.051C432.189 209.398 431.361 209.162 430.703 209.528L425.208 212.588L448.615 254.587L448.61 254.592Z" fill="white" stroke="url(#paint15_linear_1437_258)" stroke-miterlimit="10"/>
<path d="M356.483 252.453L373.371 282.758C373.737 283.415 374.566 283.651 375.223 283.286L433.125 251.013C433.439 250.837 433.81 250.796 434.157 250.893L447.578 254.708C448.745 255.041 449.731 253.796 449.138 252.735L444.61 244.611L427.055 213.116C426.69 212.459 425.861 212.222 425.204 212.588L357.006 250.597C356.349 250.962 356.112 251.791 356.478 252.448L356.483 252.453Z" fill="white" stroke="url(#paint16_linear_1437_258)" stroke-miterlimit="10"/>
<path d="M364.797 255.634L424.56 222.324" stroke="url(#paint17_linear_1437_258)" stroke-miterlimit="10"/>
<path d="M369.371 263.842L429.134 230.532" stroke="url(#paint18_linear_1437_258)" stroke-miterlimit="10"/>
<path d="M373.945 272.05L420.523 246.092" stroke="url(#paint19_linear_1437_258)" stroke-miterlimit="10"/>
<path d="M240.277 395.084L244.596 396.311C245.059 396.413 245.587 396.172 245.74 395.64L254.499 364.821C254.642 364.312 254.346 363.779 253.832 363.636L249.559 362.423L240.272 395.089L240.277 395.084Z" fill="white" stroke="url(#paint20_linear_1437_258)" stroke-miterlimit="10"/>
<path d="M195.333 348.006L188.635 371.58C188.491 372.089 188.787 372.621 189.297 372.765L234.333 385.565C234.578 385.635 234.786 385.802 234.911 386.024L239.708 394.63C240.124 395.38 241.235 395.25 241.471 394.426L243.268 388.107L250.23 363.612C250.374 363.103 250.078 362.571 249.568 362.427L196.523 347.349C196.014 347.205 195.482 347.501 195.338 348.011L195.333 348.006Z" fill="white" stroke="url(#paint21_linear_1437_258)" stroke-miterlimit="10"/>
<path d="M197.898 353.747L244.379 366.96" stroke="url(#paint22_linear_1437_258)" stroke-miterlimit="10"/>
<path d="M196.083 360.131L242.564 373.344" stroke="url(#paint23_linear_1437_258)" stroke-miterlimit="10"/>
<path d="M194.269 366.515L230.495 376.811" stroke="url(#paint24_linear_1437_258)" stroke-miterlimit="10"/>
</g>
<defs>
<linearGradient id="paint0_linear_1437_258" x1="630.764" y1="49.5657" x2="-48.8554" y2="508.783" gradientUnits="userSpaceOnUse">
<stop stop-color="#FFF2AF"/>
<stop offset="0.5" stop-color="#00FF7F"/>
<stop offset="1" stop-color="#FF7D9C"/>
</linearGradient>
<linearGradient id="paint1_linear_1437_258" x1="586.084" y1="87.2538" x2="2.78086" y2="481.391" gradientUnits="userSpaceOnUse">
<stop stop-color="#FFF2AF"/>
<stop offset="0.5" stop-color="#00FF7F"/>
<stop offset="1" stop-color="#FF7D9C"/>
</linearGradient>
<linearGradient id="paint2_linear_1437_258" x1="539.988" y1="126.136" x2="56.0542" y2="453.13" gradientUnits="userSpaceOnUse">
<stop stop-color="#FFF2AF"/>
<stop offset="0.5" stop-color="#00FF7F"/>
<stop offset="1" stop-color="#FF7D9C"/>
</linearGradient>
<linearGradient id="paint3_linear_1437_258" x1="493.179" y1="165.621" x2="110.151" y2="424.432" gradientUnits="userSpaceOnUse">
<stop stop-color="#FFF2AF"/>
<stop offset="0.5" stop-color="#00FF7F"/>
<stop offset="1" stop-color="#FF7D9C"/>
</linearGradient>
<linearGradient id="paint4_linear_1437_258" x1="454.883" y1="197.924" x2="154.409" y2="400.954" gradientUnits="userSpaceOnUse">
<stop stop-color="#FFF2AF"/>
<stop offset="0.5" stop-color="#00FF7F"/>
<stop offset="1" stop-color="#FF7D9C"/>
</linearGradient>
<linearGradient id="paint5_linear_1437_258" x1="416.412" y1="230.375" x2="198.871" y2="377.367" gradientUnits="userSpaceOnUse">
<stop stop-color="#FFF2AF"/>
<stop offset="0.5" stop-color="#00FF7F"/>
<stop offset="1" stop-color="#FF7D9C"/>
</linearGradient>
<linearGradient id="paint6_linear_1437_258" x1="342.284" y1="267.379" x2="283.483" y2="307.111" gradientUnits="userSpaceOnUse">
<stop stop-color="#FFF2AF"/>
<stop offset="0.5" stop-color="#00FF7F"/>
<stop offset="1" stop-color="#FF7D9C"/>
</linearGradient>
<linearGradient id="paint7_linear_1437_258" x1="358.177" y1="321.043" x2="310.216" y2="385.857" gradientUnits="userSpaceOnUse">
<stop stop-color="#FFF2AF"/>
<stop offset="0.5" stop-color="#00FF7F"/>
<stop offset="1" stop-color="#FF7D9C"/>
</linearGradient>
<linearGradient id="paint8_linear_1437_258" x1="359.737" y1="354.523" x2="292.406" y2="387.905" gradientUnits="userSpaceOnUse">
<stop stop-color="#FFF2AF"/>
<stop offset="0.5" stop-color="#00FF7F"/>
<stop offset="1" stop-color="#FF7D9C"/>
</linearGradient>
<linearGradient id="paint9_linear_1437_258" x1="348.992" y1="384.386" x2="339.38" y2="390.679" gradientUnits="userSpaceOnUse">
<stop stop-color="#FFF2AF"/>
<stop offset="0.5" stop-color="#00FF7F"/>
<stop offset="1" stop-color="#FF7D9C"/>
</linearGradient>
<linearGradient id="paint10_linear_1437_258" x1="366.492" y1="348.176" x2="330.653" y2="388.334" gradientUnits="userSpaceOnUse">
<stop stop-color="#FFF2AF"/>
<stop offset="0.5" stop-color="#00FF7F"/>
<stop offset="1" stop-color="#FF7D9C"/>
</linearGradient>
<linearGradient id="paint11_linear_1437_258" x1="258.693" y1="252.349" x2="197.713" y2="277.839" gradientUnits="userSpaceOnUse">
<stop stop-color="#FFF2AF"/>
<stop offset="0.5" stop-color="#00FF7F"/>
<stop offset="1" stop-color="#FF7D9C"/>
</linearGradient>
<linearGradient id="paint12_linear_1437_258" x1="249.948" y1="252.349" x2="170.448" y2="306.067" gradientUnits="userSpaceOnUse">
<stop stop-color="#FFF2AF"/>
<stop offset="0.5" stop-color="#00FF7F"/>
<stop offset="1" stop-color="#FF7D9C"/>
</linearGradient>
<linearGradient id="paint13_linear_1437_258" x1="410.824" y1="312.295" x2="383.571" y2="323.688" gradientUnits="userSpaceOnUse">
<stop stop-color="#FFF2AF"/>
<stop offset="0.5" stop-color="#00FF7F"/>
<stop offset="1" stop-color="#FF7D9C"/>
</linearGradient>
<linearGradient id="paint14_linear_1437_258" x1="406.912" y1="312.295" x2="371.384" y2="336.301" gradientUnits="userSpaceOnUse">
<stop stop-color="#FFF2AF"/>
<stop offset="0.5" stop-color="#00FF7F"/>
<stop offset="1" stop-color="#FF7D9C"/>
</linearGradient>
<linearGradient id="paint15_linear_1437_258" x1="454.811" y1="212.895" x2="415.937" y2="230.085" gradientUnits="userSpaceOnUse">
<stop stop-color="#FFF2AF"/>
<stop offset="0.5" stop-color="#00FF7F"/>
<stop offset="1" stop-color="#FF7D9C"/>
</linearGradient>
<linearGradient id="paint16_linear_1437_258" x1="449.316" y1="217.974" x2="367.4" y2="290.44" gradientUnits="userSpaceOnUse">
<stop stop-color="#FFF2AF"/>
<stop offset="0.5" stop-color="#00FF7F"/>
<stop offset="1" stop-color="#FF7D9C"/>
</linearGradient>
<linearGradient id="paint17_linear_1437_258" x1="424.56" y1="224.93" x2="386.57" y2="270.987" gradientUnits="userSpaceOnUse">
<stop stop-color="#FFF2AF"/>
<stop offset="0.5" stop-color="#00FF7F"/>
<stop offset="1" stop-color="#FF7D9C"/>
</linearGradient>
<linearGradient id="paint18_linear_1437_258" x1="429.134" y1="233.138" x2="391.144" y2="279.195" gradientUnits="userSpaceOnUse">
<stop stop-color="#FFF2AF"/>
<stop offset="0.5" stop-color="#00FF7F"/>
<stop offset="1" stop-color="#FF7D9C"/>
</linearGradient>
<linearGradient id="paint19_linear_1437_258" x1="420.523" y1="248.123" x2="390.918" y2="284.017" gradientUnits="userSpaceOnUse">
<stop stop-color="#FFF2AF"/>
<stop offset="0.5" stop-color="#00FF7F"/>
<stop offset="1" stop-color="#FF7D9C"/>
</linearGradient>
<linearGradient id="paint20_linear_1437_258" x1="254.535" y1="365.076" x2="233.816" y2="370.964" gradientUnits="userSpaceOnUse">
<stop stop-color="#FFF2AF"/>
<stop offset="0.5" stop-color="#00FF7F"/>
<stop offset="1" stop-color="#FF7D9C"/>
</linearGradient>
<linearGradient id="paint21_linear_1437_258" x1="250.267" y1="351.053" x2="195.242" y2="399.008" gradientUnits="userSpaceOnUse">
<stop stop-color="#FFF2AF"/>
<stop offset="0.5" stop-color="#00FF7F"/>
<stop offset="1" stop-color="#FF7D9C"/>
</linearGradient>
<linearGradient id="paint22_linear_1437_258" x1="244.379" y1="354.781" x2="233.406" y2="380.864" gradientUnits="userSpaceOnUse">
<stop stop-color="#FFF2AF"/>
<stop offset="0.5" stop-color="#00FF7F"/>
<stop offset="1" stop-color="#FF7D9C"/>
</linearGradient>
<linearGradient id="paint23_linear_1437_258" x1="242.564" y1="361.165" x2="231.591" y2="387.248" gradientUnits="userSpaceOnUse">
<stop stop-color="#FFF2AF"/>
<stop offset="0.5" stop-color="#00FF7F"/>
<stop offset="1" stop-color="#FF7D9C"/>
</linearGradient>
<linearGradient id="paint24_linear_1437_258" x1="230.495" y1="367.32" x2="221.945" y2="387.647" gradientUnits="userSpaceOnUse">
<stop stop-color="#FFF2AF"/>
<stop offset="0.5" stop-color="#00FF7F"/>
<stop offset="1" stop-color="#FF7D9C"/>
</linearGradient>
<clipPath id="clip0_1437_258">
<rect width="631" height="631" fill="white"/>
</clipPath>
</defs>
</svg>
