<svg width="22" height="17" viewBox="0 0 22 17" fill="none" xmlns="http://www.w3.org/2000/svg">
<path d="M19.3719 0.349701H2.20054C1.17822 0.349701 0.349609 1.17832 0.349609 2.20063V14.7088C0.349609 15.7311 1.17822 16.5597 2.20054 16.5597H19.3719C20.3942 16.5597 21.2228 15.7311 21.2228 14.7088V2.20063C21.2228 1.17832 20.3942 0.349701 19.3719 0.349701ZM5.9329 12.5045H2.14315V11.0733C2.14315 10.8383 2.33326 10.65 2.56642 10.65H5.90779C5.69256 11.2472 5.70512 11.9019 5.9329 12.4848V12.5045ZM10.7862 14.3447C10.0437 14.3447 9.3747 14.0344 8.89941 13.5376L12.4596 11.8588C12.7806 11.7082 13.0837 11.5181 13.3599 11.2957C13.3833 11.4374 13.3958 11.5844 13.3958 11.7333C13.3958 13.1753 12.2282 14.3429 10.7862 14.3429V14.3447ZM14.5186 9.49675L13.9841 10.2393C13.5608 10.8276 12.9941 11.2975 12.3394 11.6059L7.12919 14.0631C7.06282 14.0936 7.00723 14.0039 7.06462 13.9591L11.5969 10.4025C12.1672 9.95589 12.8416 9.65996 13.5572 9.54517L14.4594 9.39989C14.5132 9.39093 14.5508 9.45191 14.5186 9.49675ZM8.17482 11.7351C8.17482 10.2931 9.34421 9.12548 10.7844 9.12548C11.3619 9.12548 11.8964 9.31381 12.3287 9.63126C12.0076 9.77833 11.7027 9.96486 11.4229 10.1837L8.32548 12.6139C8.22683 12.3395 8.17482 12.0436 8.17482 11.7351ZM19.4275 12.5045H15.6377V12.4848C15.8655 11.9019 15.8799 11.249 15.6628 10.65H19.0042C19.2374 10.65 19.4275 10.8383 19.4275 11.0733V12.5045ZM19.4275 7.26379H2.14315V5.83255C2.14315 5.59939 2.33326 5.40927 2.56642 5.40927H19.006C19.2392 5.40927 19.4293 5.59939 19.4293 5.83255V7.26379H19.4275ZM19.4275 3.99776H2.14315V2.56651C2.14315 2.33335 2.33326 2.14324 2.56642 2.14324H19.006C19.2392 2.14324 19.4293 2.33335 19.4293 2.56651V3.99776H19.4275Z" fill="#2C2C2C"/>
</svg>
